/* XPM */
static char *_10990888313432a9e1113999d9377bb1KVYHHVH154nwIf7[] = {
/* columns rows colors chars-per-pixel */
"64 64 16 1 ",
"  c gray30",
". c gray24",
"X c gray27",
"o c gray34",
"O c #181818",
"+ c gray12",
"@ c #252525",
"# c #101010",
"$ c #353535",
"% c #2F2F2F",
"& c #2A2A2A",
"* c #5F5F5F",
"= c #686868",
"- c #6F6F6F",
"; c #777777",
": c gray51",
/* pixels */
"################################################################",
"#O+&%%&&%@O#+&%%&&&@&+O#O++@@@@+OO#O@%&@&&@&&%%%%&&@@+#O+&&&&&&@",
"#+X*--==-o@+X*--=*oooX+O&.X    X%+#@o-*o**o*=----=*o .++X**==**o",
"#&*::::::=%&o;:::;--= ++. oooo* .&O%-:;-;---::::::;==X+@o;;;;;==",
"#&*;--===o$$*---===* $O+XoX.X  X.%O&*;-*ooo*=---=*=*oX+@o-***o  ",
"#&=:=**o .$.*-=*ooo .&O@ o.$$....%O@o-=oX.X o**o  ooo.+&*-o  X..",
"#&=:=*o .$%.*-=o X...%O+X X$&%..%+#@o-* .$.X oo XXX  .+&=;* X.$$",
"#@ *oXX.%&@$ * X$%&&%&OO$.$&++%%+O#@ oX.%%%$..X.$$$$.$O@ * .$%&@",
"#O@&@+++&@O+$$&+OOOOOO##O+OO##OO###O$$@+&&+O++@@+OOO+O#O@@++OOOO",
"OO#O@&@%..%&$$&@@+#O@%%&@@&%&&&&&@@@@&&$..&+@&%@O#OO++@@++++OO##",
"&+#@o-**-;*ooooo .+@o-=* o=-*****o .+&o--=o ooo.+O&$.X   XX.%@+O",
"%@O%;:;-;;-=**==*X+&-::-*=;;--;;-=*X+&-::-=*==* ++.   oooo X.%&&",
"%&O%-:-*oooooo   $O&*;=ooooooo**oo $O&*;=ooo  oX++Xo.$..X XX...$",
"%@O%-:-o X    X..$+&o=o   X.X     X$+&o=o   XX .+@ o.%&%$......$",
"%@O&=:-*ooXX  X.X$%$o* X  X.XXXX  X$@%*= XXX  X.@&X X$&@%$$$..%&",
"&+#@ *   X$$.....$&%XX.....$$%%$..$%@% o.$$....%@&$.$%++@@@&%%+O",
"OO##+@@+++OO++%$$%+O+@%%++%&+OOO++OO+@%%++@@++@&&@+OOO###OOOOO##",
"#O@&@@++@@@@@&$.$%&@@%..%%..%@@+OOO+&&&@++@+#O@$..$%&&%%&&@@@@@@",
"#@ =*o  ooooooo $$ oo*-;**-;*o X%&%$.XXX...%O+.o*=--==--=*  oo  ",
"#&*:;=====-===oX%$*---:;--;;=*o $%.X      X$O@ ==-;:;;::;-=****o",
"#&*;==**oooo X.%+& ==*o   o X..$+@. XXXXXXX$O@o=*ooo**oo**o XXX ",
"#@o-=**o    ..$&O+ **oX......$$&O+. .$.X...%O@o=oXXXX XX   X$$$.",
"#@o-=*o XX  .$.%O+ *o X.$$.XXX.%O+XX%&.XX.$&O@ * X  XX  X..$..$$",
"#@Xo XX.$$..%&%&O+. X.$%&&%$..$&++$$&@%$$%&+#+.X$$..$$..$%&&$$&@",
"#O+@@+++OO++OOOO##+++++OOOOO++O+@@++&&+OOOO###++OO++OO++OOO+&&+O",
"OO##O+OO+++@+@@+++++OO####+@@@&$X.&@@&%%&&%%&@@+@+##+@@@@@@&$$&+",
"&+#O$.$$.X      X...%@+O#+. o**-;-o.+&o-==--*o   .++. oooo  oo  ",
"%&O+X X.X oooooo   X$&@O#@ ==-;;:;=X+&-::;::-=*** ++ ==-==*ooo**",
"%&O+. .%%$XX..XXXXX.&++O#@o=*o*ooooX+&*;=****o  oX+@o=*ooo XX  o",
"%@O+X .%&%..%%.X.X..%@@+#&o-o  XXX .+@o=o     ..X.@&o=o   XX.XX ",
"@+#+X X.$..$&&$.X.X..$%@#&o-o XX  X$O@o-o XX  .$..%$o*o XX  X.XX",
"+O#O$.$$$$$%++%$$$$$$%&+#+XoX.$$XX$&O@XoX.$$.$&&%%%$X X.$$..$$$.",
"####O+OOOOOO##OOOOOO+OO###+@+OO+%%++@@&@+OOO++OOO+&%@++OOO++O+%$",
"#O@%%%%%&&@@&&&@@@@+##+@@@@&&%%%$$&&..+#@%&@+@@@@&.$OO@%&@@@@&$.",
"#@ =----=*  ***ooo .++. ooo*---=*  o-*@@o-*o  oo o* +@o-*ooo  oo",
"#&*:::::;-**-;-===* ++ ====-:::;*o*=:=&&-:;=**==**= +&-:;==**o**",
"#&*;-==*o   o*oo  oX+@o=*o  **=o   o* +&*;*o  oo   .+&*;*o  X  o",
"#@o-=o XXXXX    XX X@&o=o XXX   XX   .+@o=o XX  X.X$O@o=oXXXXX  ",
"#@o-=o X    XXXX   X%$o*o   XX    XXX$O@o-o     XX .+@o= X    XX",
"#@Xo X$$.........X..&%X X...$$.XXX$%$&O+XoX..X..$$.$O+X .$....$$",
"#O+@@+OO+++@%$$%+++OO+%$@+++OO+@%%+OOO##+@++++++OO+O##+@+O++++OO",
"OO##+@&&@@@@&$$$%&&&&$.$&+##+@@%.X$&&@@@@@@+##O++++@@@++++++++++",
"&+#+X**=*o X$$ *=-**--=*o.++. o*-;;-*o  oo .+O$..X     XXX  X...",
"%@O&*::;-=* $$o-::--::-=*X+@o---:::;-=**==*X++X   ooo*oo  oo    ",
"%&O%-:;=*o .+%*;=*o****o $O&=:=o**oooo     .++X XX X   X..XXXX.$",
"%@O%-:-o X.%O&=;*   XX X.%O%-:*  XXX XX...X$O+$XX.......$$$...%&",
"%@O&*;=o .$&O&*-* X...X.$&O&*-* XX  XX.X.X .+O@%..$$$$$$.$&%..&@",
"&+#+Xo X.%&+#+XoX.$%&&%%&+#+X X.....$$$....$O#O+%%&@@@@&%%++%%+O",
"OO##+@+++OO###+@+++OOOOOO###++++%%@+O+&$$%@O####OOOOOOOOOO##OO##",
"#O+&&&&+##O++++++OO###+@@&%%%&&%..%@@%.XX.%@@@@@@+##+@@@@@@@@@@@",
"#+X*--*X+O$..X  X$@O#+. o*----==-=*oo*-;-=*o  oo .++. oo*o      ",
"#&*:::- @+Xo  oo X%+#@ ==-;:::;;;--==-;:;-==**==*X@& =-==*oooo**",
"#&-:;=o.++ o X XXX.%O@o=*ooo***oo oo  oo    oooo .%$*=*o X..X oo",
"#%-:=oX%O+X .$$....%O@o=oX..    .X XX......X   X.$&.*=oX.$$$.X  ",
"#&*;* .&OO%$%@@%..%+#&o= .$.  XX..XX.X..$$.X   .$&+%*= .$$..  XX",
"#+XoX$&+##+@+OO+%%+O#+X .%&%..$%$$%%$$$%&&%$..$%%&O@X .%&&%$..$$",
"#O+@+OO####O#O#OOO####@@+OOO+OOOOOOOOOOOOOOO++O+&%&@@+OOOOOO++OO",
"###O@&%%&@@+##O++@@@++O#####+&%&@@&%&@@@@&%%&@@@@%..&@&%%%&@@+++",
"#O+$o=--*o .+O&.X   X.%@+O#+X*-=oo=-*oooo*--*o .@& *o*----*o XX.",
"#O@X-::;-**X++. o**o X.%&+#@o;:;=*;;-====-::-=*X+@o---;::;-=*o  ",
"#O@X=-*o  X%O+Xooo XXX...%O@o-=*   ooo  o***o  .O@o-*ooooo  o XX",
"#O@.ooX$.$$@O+ o X...X...%O@ * X....XXXXXXXX...%O@o* X.$.$..XX..",
"#O@$XX$%$$%@O+X $%..X...%+#+.X.$$$%$$.XX.$$$$$$&O+X .$$$$$$$$$$$",
"#O&$..$%%%$@O+.X&@$...X$@O#O$.$%%%%%%.X $%%%%%%@O+.X$%%%%%%%%%%%"
};
