/* XPM */
static char *result[] = {
/* columns rows colors chars-per-pixel */
"64 64 124 2 ",
"   c gray20",
".  c gray22",
"X  c #393939",
"o  c #3A3A3A",
"O  c #3C3C3C",
"+  c #3F3F3F",
"@  c #414141",
"#  c gray26",
"$  c #434343",
"%  c gray27",
"&  c gray28",
"*  c #484848",
"=  c #494949",
"-  c gray29",
";  c #4B4B4B",
":  c #4C4C4C",
">  c gray30",
",  c #4E4E4E",
"<  c gray31",
"1  c #505050",
"2  c #515151",
"3  c gray32",
"4  c #535353",
"5  c gray33",
"6  c #555555",
"7  c #565656",
"8  c gray34",
"9  c #585858",
"0  c gray35",
"q  c #5A5A5A",
"w  c #5B5B5B",
"e  c gray36",
"r  c #5D5D5D",
"t  c gray37",
"y  c #5F5F5F",
"u  c #606060",
"i  c gray38",
"p  c #626262",
"a  c gray39",
"s  c #646464",
"d  c #656565",
"f  c gray40",
"g  c #676767",
"h  c #686868",
"j  c DimGray",
"k  c #6A6A6A",
"l  c gray42",
"z  c #6C6C6C",
"x  c #6D6D6D",
"c  c gray43",
"v  c #6F6F6F",
"b  c gray44",
"n  c #717171",
"m  c #727272",
"M  c gray45",
"N  c #747474",
"B  c gray46",
"V  c #767676",
"C  c #777777",
"Z  c gray47",
"A  c #797979",
"S  c gray48",
"D  c #7B7B7B",
"F  c #7C7C7C",
"G  c gray49",
"H  c #7E7E7E",
"J  c gray50",
"K  c #808080",
"L  c #818181",
"P  c gray51",
"I  c #838383",
"U  c #848484",
"Y  c gray52",
"T  c #868686",
"R  c gray53",
"E  c #888888",
"W  c #898989",
"Q  c gray54",
"!  c #8B8B8B",
"~  c gray55",
"^  c #8D8D8D",
"/  c #8E8E8E",
"(  c gray56",
")  c #909090",
"_  c gray57",
"`  c #929292",
"'  c #939393",
"]  c gray58",
"[  c #959595",
"{  c gray59",
"}  c #979797",
"|  c #989898",
" . c gray60",
".. c #9A9A9A",
"X. c #9B9B9B",
"o. c gray61",
"O. c #9D9D9D",
"+. c gray62",
"@. c #9F9F9F",
"#. c #A0A0A0",
"$. c gray63",
"%. c #A2A2A2",
"&. c gray64",
"*. c #A4A4A4",
"=. c #A5A5A5",
"-. c gray65",
";. c #A7A7A7",
":. c gray66",
">. c #A9A9A9",
",. c #AAAAAA",
"<. c gray67",
"1. c #ACACAC",
"2. c gray68",
"3. c #AEAEAE",
"4. c #AFAFAF",
"5. c gray69",
"6. c #B1B1B1",
"7. c #B2B2B2",
"8. c gray70",
"9. c #B4B4B4",
"0. c gray71",
"q. c #B7B7B7",
"w. c gray72",
"e. c #B9B9B9",
/* pixels */
"L | L #.;.$.} W l . W :.*.~ G ) s _ *.@.! h * r T > 4 s x R Q e J e.v ! ( m R Z ' ../ A b l T ..5.,.<.O.u d R ) G i $ 9 } } | / ",
" .U K K  .| ! J i o N P ' &.' F i f W ! J j e O. ...*.( L g H ~ ! ` E =.=.X.E ^ y r f s a U / <.5.=.=.| N 5 f z w ; 1 R #.2.:.&.",
";.) A x Q Q H N t c R W J ! [ V   B I C v u v ' %.=.} ~ D A ^ ;.o.A / [ { / E B k b j g K ' :.>.&.#.[ Y h 4 Q @.W n M ] ,.5.,.>.",
"@.{ N 3 u x h e 4 ~ $...G A B j 1 x -.^ h e I ` @.{ W F Y { o.*.X.P A } [ Q L v d W ..| ( ] +.#. .) H z t v ! 4.6.-.H ' X.;.-.*.",
"' Y d ; Z O.h c i ) o.$.^ Z h : u #.8.-.^ C ) T ^ { Y C Y | #.X.P v x ' +.! D x I :.2.%.L A [ ] Y V k h F { $.6.4.>.} J M L [ | ",
"Y x 2 { &.{ [ ' G * G ! U C h t (  .q.1.o._ K L _ ..) A V Q ( J a e G +...Y A H ] >.;.*.( b K K n i d Z _ &.<.<.<.=.@.^ f f v U ",
"n q E %.>.3. .{ L ; 0 _ T K v c ` *.0.%.O.{ ( T Q R ^ L z n V d ; + b | ( H N R | #.$.#.{ F k f 0 3 s ) &.:.-.&.$.#.} ! x 9 Z v ",
"g H @.1.:.o.X.^ v 9 P @.:...` H !  .-.X.] [ ^ P U H H V i u j k < . I #.] U N P _ [  .} ! S d r 9 4 Y ^ >.:.*.$.O.{ Q S g F P ( ",
"g { %.:.+.} W N u S #.*.+.} ( T S /  .E L T L B B K F b 7 k =.~ y 7 / *...W x v P ! ~ ~ H k a t F W Y O.@.%.+.] ' E F g M | *.O.",
"A W I [ o.W m i g T | o.[ ( W T L Q ! b y b N z L K N M M ' [ E W p U | ! G z a x F E ( E N Z _ _ @.o...! / ~ ! T V k I | ;.+.O.",
"b 1 m _ ^ B w p P { } ] ~ Y L P L D N 9 $ 9 A B K m k K { $.} +.~ 6 k P g d B Z F U I R L Q ! ] $.#.#.Y B h N B m a K } @.+.@.{ ",
"p X k L N q < s U [ _ E K Z G L N Z V a @ f ` O.$.F F W  .#.+.] B + q | Y K / ! _ ` ( ^ Q } ' W P ` | J d / j a i p _ #.#.} ] T ",
"5 > R } Q d b L S K U J m b V C A I A U g N ] &.:.| F v Z U Y A 7 = I >.4.=.#.X...^ ' =.R R D s j ] ) A ! [ ^ Y D S I K W ( Y v ",
": h ) 2.4.-./ x V G Z B c y i m T U T I H E } O.o.} P a a a d i = C @.7.:.#.#.#.#./ } +.~ M 0 > V >.] U 2.2.{ ^ H n j i r c k u ",
"3 Y $.2.,.@.} W Z ! M G p 2 7 I _ W E E ' $.#.[ [ ' W z s ` ..6.d ' 2.<.&.O.+.@.X.W I ) W V s x [ 4.;.2.5.:.) B e S 0 n P , O 3 ",
"Y $.X.X.@.] E G S K ^ ^ I b U I o.] |  .R } ..{ { _ I v i ` <.4.' ) $.&.o. .| | ( D x F m g x S { 7.6.$... .A & E ' ( ) D * 1 b ",
"1. .T x ^ R b i j Y | +.' W ( } 3.-.&.X.m J W _ ^ W K x B o.4.4.X.g E [ ' ~ W W A j j ! U x T { { =.;.P F Z < D } X.` ( C y I =.",
"8.| h z Z m a 3 t Q ..} Q ` &.#.;.*.%.{ A r j A L P V p N %.5.1.X.V h S G v x l a m ..o.@.] O.O.K E } F 7 7 D I ! ~ L N u ! =.w.",
"%. .Z K ^ O.Y f / _ O.' ( { $.X.| ..} W b 2 l B v N g l ` :.:.%.` x w Z b 0 e t M o.;.-.=.:.o.^ v S F t * i U K ^ J c 9 Z %.7.5.",
") J z G @.,.@.] } o.X.^ P Y { ( T ( ! S g e Y ] ` n i R %.5.-.| L a z ! #.) Y R F / <...O.[ R N b Y ' C 5 q L C B u 9 e ) *.,.#.",
"z s K  .:.>.@.| O.( W U S n Z K C U Y N s B } *.$.` F U ~ /  .^ x 7 ~ #.2.;.X./ 4 H $.] Y x a p Z ~  .T j , k G A V d j / +.+.! ",
"; B ] *.,.o.| ;...S p T Q n j i s P ) C z [ +.,.%.+.! l j N ~ D 0 3 ' 2.6.:.&.( g Q ..' C 9 3 x S Q ` ( N A H W ] [ Q c B / E l ",
"> ( -.*. .[ o.| E p z ~ O.L v m u A U B n ] @.;.$.O.] H a p k u & W o.4.5.-.+.' G S J K j a m ] | %.O...R ^ ^ ~ ) _ ~ H E H l < ",
"^ ' ..| ~ W ^ L d t  .&...S z ` / Q K s v ..>.X.{ W K S a - > ; d U 4.8.2.&.+./ A 6 r h M J J [ ..1.-.} E Q E I o.' _ ) G k v f ",
">.=.} / K n h s 4 S | %.R s Q %...@.R v f ( o.] R n u 0 : - m C { +.3.3.<.*.{ T c 1 F ( { -.#.U ' $.#.R D P K I ~ | [ _ Z l O.:.",
"3.! ` ! P F N w y )  .! B k ..-.X.$...W c ^ _ R c 9 , d y C ~ ;._ z  .>.=.+./ A d r Q &.3.4.%.U T  .| W n M B K ) { { U N ` :.e.",
" .R B } ,.O.L v ! o.H x D ..O.%.} } { T s H G v 3 % w [ ~ X.{ +.Q 0 R O.+.` L M q x ' 5.8.2.#.L z K R Z 8 9 j U ( ] ^ J A ~ | ..",
"G h A O.4.$.( R Q | L e K o.$.o._ W H m t 7 g l w + D ../ O.o.{ J : C R P V k u 9 B | 9.5.=.] B 7 g v w < k ` o.-._ ( ^ ( o.` J ",
"] Y O.&.&._ Y B ( %.E n x T ( ) L B z w 6 B +.( f 4 S / ( [ _ Y j * ( &.' ( ^ ~ y S =.4.>.X.R z 4 { } ^ c / &.:.2.*.] ! ! | #. .",
"D U ..#.` K n Z ] ,. .x 6 3 l B z w 5 6 x F } H ~ Q F N B T L M t t } 3.7.1.%.%.E 0 V [  .) S i b [ 4.5.| | ` X.3.;...F h H Q / ",
"y Q ' / S j j / *.:.-.! r 0 5 u < X t z G l M } +. .T j 6 a p p 6 b O.4.2.>.:.@.Y + S J c n a w _ #.5.7.$.{ V U >.#.~ f 9 z S l ",
"y G Z v p 7 m O.<.,.%.) S h H ` v P ( ..U H ^ #.{ T z 2 v Q k e 8 / o.4.<.,.&.} D @ H O.! g 5 f ' ;.3.,.o.F 8 s U F a ; i Q J : ",
"J 8.N ^ ) B T A '  ./ D n l R X.3.;.,.o.t d R ( G a % 9 { } | ( J } L @.;.#.} Q z X W :.&.~ F ( s ( &.+.~ k = r ~ e t j x R W r ",
"! ` E =.=.X.E ^ y r f s a U / <.5.=.=.| N 5 f z w ; 1 R #.2.:.&. .U K K  .| ! J i o N P ' &.' F i f E ! J j e O. ...*.( L g H ( ",
"o.A / [ { / E B k b j g K ' :.>.&.#.[ Y h 4 Q @.W n M ] ,.5.,.>.;.) A x Q Q H N t c R W J ! [ V   B I C v u v ' %.=.} ~ D A ^ ;.",
"X.P A } [ Q L v d W ..| ( ] +.#. .) H z t v ! 4.6.-.H ' X.;.-.*.+.{ N 3 u x h e 4 ~ $...G A B j 1 x -.^ h e I ` @.{ W F Y { o.*.",
"L v x ' +.! D x I :.2.%.L A [ ] Y V k h F { $.6.4.>.} J M L [ | ' Y d ; Z O.h c i ) o.$.^ Z h : u #.8.-.^ C ) T ^ { Y C Y | #.X.",
"i e G +...Y A H ] >.;.*.( b K K n i d Z _ &.<.<.<.=.@.^ f f v U Y x 2 { &.{ [ ' G * G ! U C h t (  .q.1.o._ K L _ ..) A V Q ( L ",
"= + b | ( H N R | #.$.#.{ F k f 0 3 s ) &.:.-.&.$.#.} ! x 9 Z v v q E %.>.3. .{ L ; 0 _ T K v c ` *.0.%.O.{ ( T Q R ^ L z n V g ",
", . I #.] U N P _ [  .} ! S d r 9 4 Y ^ >.:.*.$.O.{ Q S g F P / g H @.1.:.o.X.^ v 9 P @.:...` H !  .-.X.] [ ^ P U H H V i u j j ",
"p 7 / *...W x v P ! ~ ~ H k a t F W Y O.@.%.+.] ' E F g M | *.O.h { %.:.+.} W N u S #.*.+.} ( T S /  .E L T L B B K F b 7 k =.^ ",
"^ p U | ! G z a x F E ( E N Z _ _ @.o...! / ~ ! T V k I | ;.+.o.S W I [ o.W m i g T | o.[ ( W T L Q ! b y b N z L K N M M ' [ Y ",
"^ 6 k P g d B Z F U I R L Q ! ] $.#.#.Y B h N B m a K } @.+.@.] m 1 m _ ^ B w p P { } ] ~ Y L P L D N 9 $ 9 A B K m k K { $.} o.",
"N + q | Y K / ! _ ` ( ^ Q } ' W P ` | J d / j a i p _ #.#.} ] U s X k L N q < s U [ _ E K Z G L N Z V a @ f ` O.$.F F W  .#.+.[ ",
"5 = I >.4.=.#.X...^ ' =.R R D s j ] ) A ! [ ^ Y D S I K W ( Y c 6 > R } Q d b L S K U J m b V C A I A U g N ] &.:.| F v Z U Y S ",
"= C @.7.:.#.#.#.#./ } +.~ M 0 > V >.] U 2.2.{ ^ H n j i r c k y > h ) 2.4.-./ x V G Z B c y i m T U T I H E } O.o.} P a a a d p ",
"d ' 2.<.&.O.+.@.X.W I ) W V s x [ 4.;.2.5.:.) B e S 0 n P , O 3 3 Y $.2.,.@.} W Z ! M G p 2 7 I _ W E E ' $.#.[ [ ' W z s ` ..6.",
"' ) $.&.o. .| | ( D x F m g x S { 7.6.$... .A & E ' ( ) D * 1 b Y $.X.X.@.] E G S K ^ ^ I b U I o.] |  .R } ..{ { _ I v i ` <.4.",
"o.g E [ ' ~ W W A j j ! U x T { { =.;.P F Z < D } X.` ( C y I -.<. .T x ^ R b i j Y | +.' W ( } 3.-.&.X.m J W _ ^ W K x B o.4.3.",
"o.V h S G v x l a m ..o.@.] O.O.K E } F 7 7 D I ! ~ L N u ! =.w.8.| h z Z m a 3 t Q ..} Q ` &.#.;.*.%.{ A r j A L P V p N %.5.2.",
"' x w Z b 0 e t M o.;.-.=.:.o.^ v S F t * i U K ^ J c 9 Z %.7.5.$. .Z K ^ O.Y f / _ O.' ( { $.X.| ..} W b 2 l B v N g l ` :.:.%.",
"K a z ! #.) Y R F / <...O.[ R N b Y ' C 5 q L C B u 9 e ) *.,.#._ J z G @.,.@.] } o.X.^ P Y { ( T ( ! S g e Y ] ` n i R %.5.-. .",
"l 7 ~ #.2.;.X./ 4 H $.] Y x a p Z ~  .T j , k G A V d j / +.+.Q c s K  .:.>.@.| O.( W U S n Z K C U Y N s B } *.$.` F U ~ /  .( ",
"9 3 ' 2.6.:.&.( g Q ..' C 9 3 x S Q ` ( N A H W ] [ Q c B / E h > B ] *.,.o.| ;...S p T Q n j i s P ) C z [ +.,.%.+.! l j N ~ G ",
"% W o.4.5.-.+.' G S J K j a m ] | %.O...R ^ ^ ~ ) _ ~ H E H l : > ( -.*. .[ o.| E p z ~ O.L v m u A U B n ] @.;.$.O.] H a p k p ",
"f U 4.8.2.&.+./ A 6 r h M J J [ ..1.-.} E Q E I o.' _ ) G k v g ! ' ..| ~ W ^ L d t  .&...S z ` / Q K s v ..>.X.{ W K S a - > : ",
"[ +.3.3.<.*.{ T c 1 F ( { -.#.U ' $.#.R D P K I ~ | [ _ Z l O.>.;.=.} / K n h s 4 S | %.R s Q %...@.R v f ( o.] R n u 0 : - m C ",
"' z  .>.=.+./ A d r Q &.3.4.%.U T  .| W n M B K ) { { U N ` :.e.3.! ` ! P F N w y )  .! B k ..-.X.$...W c ^ _ R c 9 , d y C ~ ;.",
"! 0 R O.+.` L M q x ' 5.8.2.#.L z K R Z 8 9 j U ( ] ^ J A ~ | X.| R B } ,.O.L v ! o.H x D ..O.%.} } { T s H G v 3 % w [ ~ X.{ O.",
"J : C R P V k u 9 B | 9.5.=.] B 7 g v w < k ` o.-._ ( ^ ( o.` J G h A O.4.$.( R Q | L e K o.$.o._ W H m t 7 g l w + D ../ O.o.{ ",
"h * ( &.' ( ^ ~ y S =.4.>.X.R z 4 { } ^ c / &.:.2.*.] ! ! | #. .] Y O.&.&._ Y B ( %.E n x T ( ) L B z w 6 B +.( f 4 S / ( [ _ T ",
"t t } 3.7.1.%.%.E 0 V [  .) S i b [ 4.5.| | ` X.3.;...F h H Q ^ D U ..#.` K n Z ] ,. .x 6 3 l B z w 5 6 x F } H ~ Q F N B T L N ",
"6 b O.4.2.>.:.@.Y + S J c n a w _ #.5.7.$.{ V U >.#.~ f 9 z S l y Q ' / D j j / *.:.-.! r 0 5 u < X t z G l M } +. .T j 6 a p p ",
"9 / O.4.,.,.&.| G # H +.^ g 6 f ' ;.3.,.o.J w f _ ( M 6 i Q J : y D J Z k w m O.<.>.&.` D h H { c I ( X.Y J ~ @.{ E v 6 c ^ k e "
};
