/* XPM */
static char *_41f273637004ce9bd2aef1f3f593b93[] = {
/* columns rows colors chars-per-pixel */
"64 64 250 2 ",
"   c #0A0C04",
".  c #160C08",
"X  c #021403",
"o  c #0C130C",
"O  c #021C0C",
"+  c #0B1B0D",
"@  c #051708",
"#  c #14160D",
"$  c #0C1C12",
"%  c #051D12",
"&  c #131C13",
"*  c #191A17",
"=  c #261B19",
"-  c #01230D",
";  c #04260B",
":  c #00340C",
">  c #032412",
",  c #0B2413",
"<  c #022C13",
"1  c #0A2C15",
"2  c #0C2C1A",
"3  c #052B1A",
"4  c #132315",
"5  c #14241A",
"6  c #1C231B",
"7  c #16281A",
"8  c #023415",
"9  c #03341A",
"0  c #0B341C",
"q  c #013B1B",
"w  c #063B19",
"e  c #13331B",
"r  c #24241D",
"t  c #24301E",
"y  c #1C2C23",
"u  c #023D22",
"i  c #0C3D23",
"p  c #0A3522",
"a  c #1B3224",
"s  c #123B24",
"d  c #193926",
"f  c #0A2E20",
"g  c #282925",
"h  c #2C332B",
"j  c #26372A",
"k  c #35362D",
"l  c #2C3933",
"z  c #333B33",
"x  c #3B3B34",
"c  c #3C3D3B",
"v  c #353835",
"b  c #312729",
"n  c #1D1E22",
"m  c #443C38",
"M  c #01421C",
"N  c #03491C",
"B  c #01531C",
"V  c #00410F",
"C  c #024322",
"Z  c #0B4324",
"A  c #014B24",
"S  c #024C29",
"D  c #0B4C2B",
"F  c #0A4728",
"G  c #13432B",
"H  c #174629",
"J  c #01542B",
"K  c #015A2D",
"L  c #055528",
"P  c #0B4C31",
"I  c #1A4832",
"U  c #035D33",
"Y  c #0B5C35",
"T  c #095635",
"R  c #175838",
"E  c #13522C",
"W  c #25432E",
"Q  c #2B4334",
"!  c #274835",
"~  c #324234",
"^  c #34453A",
"/  c #3C423B",
"(  c #384738",
")  c #26553B",
"_  c #3B523B",
"`  c #01632A",
"'  c #016434",
"]  c #036439",
"[  c #0C633B",
"{  c #026B3B",
"}  c #096838",
"|  c #17643C",
" . c #02733D",
".. c #04753A",
"X. c #28623E",
"o. c #42433D",
"O. c #4D4139",
"+. c #433D41",
"@. c #1E5842",
"#. c #275A43",
"$. c #395846",
"%. c #3C4642",
"&. c #0B6B42",
"*. c #1B6B45",
"=. c #176843",
"-. c #037442",
";. c #0A7444",
":. c #077B48",
">. c #167649",
",. c #197C52",
"<. c #286848",
"1. c #35664A",
"2. c #26764C",
"3. c #3C6852",
"4. c #297854",
"5. c #387959",
"6. c #2A6C51",
"7. c #3F7860",
"8. c #474944",
"9. c #47564B",
"0. c #52524E",
"q. c #4B5C54",
"w. c #545A55",
"e. c #585955",
"r. c #514D47",
"t. c #625E59",
"y. c #44644C",
"u. c #4A6A58",
"i. c #5C635C",
"p. c #57685A",
"a. c #46745B",
"s. c #58735F",
"d. c #64665D",
"f. c #69715E",
"g. c #5D6962",
"h. c #4A7A62",
"j. c #5C7464",
"k. c #587A66",
"l. c #5F7C70",
"z. c #636462",
"x. c #656B64",
"c. c #6A6B65",
"v. c #6B6D6A",
"b. c #656B68",
"n. c #65766B",
"m. c #6C736C",
"M. c #647B6C",
"N. c #6C7B6D",
"B. c #657465",
"V. c #73736D",
"C. c #77786C",
"Z. c #6C7A72",
"A. c #747572",
"S. c #747B73",
"D. c #7A7C75",
"F. c #7C7E7B",
"G. c #787976",
"H. c #736C6C",
"J. c #6A5E62",
"K. c #86746E",
"L. c #847B77",
"P. c #8A6D75",
"I. c #07854B",
"U. c #17874C",
"Y. c #0C8A53",
"T. c #178855",
"R. c #0A9657",
"E. c #17965A",
"W. c #0C934C",
"Q. c #26865A",
"!. c #37835C",
"~. c #24945B",
"^. c #24854B",
"/. c #0FA35D",
"(. c #1A9963",
"). c #2B8A62",
"_. c #3A8965",
"`. c #269766",
"'. c #38966A",
"]. c #3C9C72",
"[. c #0DA564",
"{. c #17A667",
"}. c #12B56E",
"|. c #27A569",
" X c #29AB73",
".X c #37A977",
"XX c #2FB073",
"oX c #488768",
"OX c #57856B",
"+X c #48926D",
"@X c #5B8A73",
"#X c #489775",
"$X c #559778",
"%X c #66836E",
"&X c #6B8474",
"*X c #678977",
"=X c #728374",
"-X c #73857A",
";X c #7C837C",
":X c #738B7C",
">X c #7B8B7D",
",X c #788676",
"<X c #65957B",
"1X c #75917D",
"2X c #52A47D",
"3X c #4D8E68",
"4X c #83837D",
"5X c #85867C",
"6X c #91817B",
"7X c #3FB883",
"8X c #7C8B82",
"9X c #7A8783",
"0X c #6B9682",
"qX c #799585",
"wX c #50AD86",
"eX c #79A58A",
"rX c #70AD91",
"tX c #57C396",
"yX c #838582",
"uX c #8A8583",
"iX c #848A83",
"pX c #8A8B85",
"aX c #8B8C8A",
"sX c #868E8A",
"dX c #948B89",
"fX c #8C928B",
"gX c #869589",
"hX c #95948C",
"jX c #8D9C93",
"kX c #949492",
"lX c #959B93",
"zX c #9B9C95",
"xX c #9B9D9A",
"cX c #999796",
"vX c #A69B9B",
"bX c #A58D8E",
"nX c #89A695",
"mX c #9DA39B",
"MX c #95A699",
"NX c #86B69D",
"BX c #8BA691",
"VX c #A2A39D",
"CX c #A6A89D",
"ZX c #94B5A4",
"AX c #A4A5A2",
"SX c #AAA9A6",
"DX c #A9B4A8",
"FX c #B4B3AF",
"GX c #A59EA1",
"HX c #9BC1AE",
/* pixels */
"X X   .     # o O O & * * * # o o O > > X X     & 6 = * . .   # 6 7   o 6 * = = * $ - - X     . * = 6 & @ @ , & .   4 5 @ o r r ",
"D G j h z z / / ~ ^ o.8.m x v j d s I ! j l k k z / / v h g # 6 z _ l l ~ ( m m o.^ P P I l x x m o.o.~ I G Q ~ x h a a g g r = ",
"(.).a.u.&X:X>XiXgXfXhXzX4X;XS.@X5._.@X:X-X;X;X;XS.;X;XS.p./ r k Z.jXqX:X:X:X5X4XjXqX#X'.<X:X:X>X4X5X5X:XoX_.@X>X>Xj.) I 9./ g . ",
"7XwX$X$XrXrXrXNXBXBXBXMXMXBXeXrX+X$XeXnXMXxXxXxXfXlXnXgX*Xy.j ( gXHXHXNXNXMXmXCXDXNXwX2XrXBXnXBXlXVXmXnX+X_.qXMXBX0X4.<.u.0.g # ",
"NXrXwX.X7X7XXX`.| X.oX$X<XoX#X'.OX*X:XgXlXfX;XS.4X;X&X@Xh.#.9 ! :XZXtXrXrXnXhXfXfXqX).Q.0XfXiX-X;X;X>X%X) I l.qX:X@X).4.a.$.g 6 ",
"ZXnXwX.X.XXX}.[.` ` U.~.4.>.T.T.oXM.S.S.fX>XZ.B.m.B.h.7.6.P 9 ! :XNXrXwX$X@X%XB.Z.k.,.>.3.p.q.9.u.p.M.s.Q W a.*Xl.h.4.,.4.#.a 5 ",
"DXMXqX*X@X#X X[.E.W./.I.B ` E.`.+X%XZ.S.gX:XOXh.h.h.5.4.*.G 2 ^ qXZXnX0X+X_.4.6.I R >.,.P s a d ! $.p.d.p.u._.'.OXa.*.&.,.=.p $ ",
"FXmXpXS.-X0XwX.X|.|.XXE.` ` W.~.4.u.B.V.fX8X@XoX7.5.4.,.=.F 5 / qXZXjXqX$X).,.&.q q [ { A q 9 G ) $.p.B.x.h.).`.'.6.S J :.&.p @ ",
"DXAXpXS.S.-X0X<X@X+X+X].,.Y.{.T.R ^ p.B.N.:X*Xh.*.>.,.T.U C , ( iXSXhX;X*X@X).&.M : : N } } } | 3.k.B.d.x.u.Q.(.{.E.J M ] T f 4 ",
"SXAXaX;XA.D.4X;XN.@XOX+X'.`.{.T.u d 1.h.3.a.h.a.=.;.:.:.] C , ~ iXSXhX4X=X@X).>.L B B ` ..U.^.4.5.h.h.k.g.u.,.R./.R.K N J D a 6 ",
"VXVXfXyXS.S.;XyXm.n.M.k.@X'.`.:.q q =.Q.*.=.*.*.&.&.{ { U C < ~ iXCXdX4X=XOX!.,.E./././.I.U.!.5.<.<.*.4.u.3.*.:.W.I.L N T F 4 . ",
"mXmXhXiXG.A.D.;Xj.k.k.h.h.!.`.:.J A :.Y.-.{ U U [ ] K J K q - j ;XVXuXD.S.k.5.Q. XXXXX X:.,.5.a.| Y { *.1.#.Y ' ....N M F s * # ",
"SXlXyXA.G.G.G.&X5.Q.Q.Q.*.*.;.:.;.;.;.:.Y.:.U A S S S S C u 9 ^ ;XhXL.C.Z.M.h.oX`.`.'._.4.5.5.5.a.1.=.Y F i C S ' ` M 8 < 1 6 = ",
"xXpXA.b.v.v.v.j.4.,.Y.T.[ [ ] ] [ Y ] ' -.' A q q q q 9 9 < - j C.uXC.c.S.M.k.h.6.6.1.3.3.3.6.6.3.#.T T u 9 q C L N : ; > , & * ",
"F.v.e.e.w.w.w.9.$.<.;.:.J D S F F Z C C D C 9 < < < > > % O X g d.C.d.e.i.i.p.q.$.$.9.9.$.$.@.R G G C S F u u Z H H 1 ; ; , $ & ",
"e.0.r.8.c x z ~ ^ ) [ [ q 0 0 0 1 3 < 3 0 1 > O O O + + @ X   r r.t.8./ 8.%.^ z v v v v %.l s 3 > > 9 p p 9 3 e d e ; X - + $ $ ",
"g g b b . * 6 a - < 9 e 7 t @ + $ $ 4 $ 5 5 $ $ & o +   o o o 6 r h h g l 7 7 5 * * * * a $ y * $ $ 5 & $ $ @ X 4 , $ + % % & & ",
"o.m m m m x ~ ! D G ! ( x k # r k %.c k 8./ c x / k h r h k z / x ~ W s 7 $ a j v v l l j 5 g b b c 8.c v k k k v z ^ ^ ^ ^ / / ",
"pXpXuXuXuX4X*X@X_._.OX&Xt.O.= k z.yXpXaXaXpXyX4XiXF.x.i.S.;X4XiX,X*X_.4.9 d p.F.yXyX9X9Xg.%.g k v.aXaXaXF.4X4XyX;X;XyXiX4X4X9X9X",
"VXVXAXAXAXMXeXrX_._.@X&XC.r.r m yXFXSXDXSXSXAXmXAXxX;XS.fXmXVXmXmXnX2X_.S R k.8X>X:X:X:Xj.9.g o.aXFXDXDXVXAXSXSXAXAXmXxXlXlXjXjX",
"bXbXdX4X;X0X0X#X| S i W 9.~ a ~ sXDXxXcXaXaXkXlXiXm.z.b.fXmXlX5XpX;X@XoX).,.R G H ) 1.1.) a 4 z F.SXxXkXkXfXkXxXxXcXaXiX-X-X-X-X",
"dXuX4XG.Z.*X$X'.J M 8 0 W j 1 W 8XAXkXaX4XyXyXyXA.d.w.i.;XpX4XD.uX4XS.OX#XT.] M M K [ | F < X g G.AXcXaXyX4XyXaXkXaX;X&Xl.OXM.M.",
"*X&Xn.n.n.&X@XoX>.>.<.) d a , Q iXAXaXyXG.G.A.A.b.e.0.e.m.D.S.C.4XL.L.=X$X'.`.Y.I.I.I.;.T w + k yXDXxXaX4XG.G.F.aXyXS.l.#X#X*X-X",
"@XOXh.h.j.%X@X_.T.).!.<.0 e , ~ iXAXpXF.A.A.v.v.z.w.0.i.x.m.m.V.D.D.L.,X$X].|.{.}.[.I.' T w ; k yXSXkXyXF.A.H.A.yX;XZ.l.$X$X*XS.",
"<X@X'._.a.oX5.>.&.;.).!.R i 2 ^ pXVXyXS.A.v.z.d.e.0.w.i.d.d.x.c.C.S.,X<X2X XE.I.R.I.' A q < - ^ 8XmXgX;XG.H.z.c.b.b.m.Z.-X-XG.A.",
"oX_.Q.Q.5._.~.I.' ] T.,.=.F 2 ( gXAXpXF.V.v.d.e.0.e.i.g.d.x.N.S.m.n.%X$X.X{.I. .I. .J q 8 ; - Q >XMX8XS.C.H.c.c.z.b.m.Z.G.S.A.A.",
">.>.I.U.2.Q.(.R.U S &.[ T q > z yXVXpX;XV.c.e.0.0.i.j.B.x.B.N.&Xj.j.B.OX`.R.:.{ { U C 8 < - O ~ iXmX;XV.D.L.G.V.d.b.Z.&X&XZ.v.v.",
"U { -.:.>.T.[.R.U C K S S 9 O l F.zXyXF.V.c.e.r.e.x.B.M.n.M.k.OXu.a.h.oXU.I.-.{ U S w < 9 - + ~ pXVX5XV.L.4XL.A.x.l.@X<X$XOXk.s.",
"q K :.(.:.-.{ K C q q q q 3 O j 4XcXF.A.V.t.0.0.i.g.S.-X-XM.5.6.<.<.6.2.U ' Y.T.J C 9 3 - - + / pXxXpXF.F.V.c.x.j.OX#X.X X`.2.=.",
"8 F [ ,.' K A M 9 9 9 9 9 3 % j D.pXV.c.v.d.e.w.9.q.j.j.j.u.<.=.D E R R C A { { C q 9 < 9 < 4 z D.fX4Xm.g.p.w.u.a.!.`.{.{.I.' J ",
"1 p I ) C C q q 2 1 3 9 9 3 % j i.A.t.e.e.e.0.8.Q ! #.#.I G i i 9 9 i s < < C C q 8 9 9 D w , h i.S.d.9.9.$.$.$.6.>.>.I.I.{ A q ",
", 7 g j a 0 0 2 5 5 2 2 f 3 % j 8.e.8.o.m o./ z 7 2 Z i < < , , - > , 5 O O < ; < < 8 9 R Z - y 8.i.9.Q d d d I R Y U U L C 9 < ",
"# # # # , 7 7 & $ & * * * $ & 5 g g g g g g r g & O > O > % $ $ & & & o + 4 7 O - ; < < - 2 , 7 g g j d 1 > $ , < u i 9 2 e 7 7 ",
"x k k k / 8.8.m v c +.+.c v c c c c c c c v z l ^ z Q a 2 $ & * r g h h h z z j C q 8 1 e ~ ^ ~ z x z Q j j h z j Q Q a j y 7 7 ",
"pXiX4XL.pXdXdXuXyXyXpXsX9X-X9XyXsXgXgXgXkXsX8X;X;X;X&Xp.a $ * = x o.r.0.S.4X4X%X4.K q e p.,XgX5XC.C.S.S.,XD.L.4X;X8X&Xj.W s 3 % ",
"DXSXVXvXVXSXSXGXxXxXmXMXrXeXjXxXmXmXmXMXZXMXjXgXfXfXqXk.d % * b 8.0.d.v.kXmXmXeX]. .C G =XgXDXDXpXpXpXpXzXzXzXvXVXmXqX@XR G 3 - ",
"mXmXlXlXgXgXfXkXaXiX:X@XwXwX0X8X4X4X;X:X@X@X&XS.;Xn.$.G u p 6 b 8.e.lXmXfXpXpXqX.XT.A M OX:X>X=X,XF.C.V.V.S.;X8X;Xn.3.#.@.P p > ",
"VXzXfX8X0X0XqXgXiX:X@X+X|.'.OXB.c.c.x.k.oXoXk.j.M.u.R C P F 5 h w.A.mXVXpXfXfXqX'.;.L A oX*X=XN.m.m.c.x.B.M.@X<XM.p.<.Y =.P p % ",
"SXxXsX*X#X$X0XqXqX<X].`.(.'.@X&Xx.x.B.j.*X@XoXh.@XOX4.>.>.T 3 j V.cXcXaX4XkXlX:XR N ` T.!.+X%XB.B.m.x.s.h.oX'.].@XOX5.,.Y F 2 X ",
"FXAXfX*X#X#X$X0X<X#X`.E.:.4.oX%X%XZ.Z.Z.iX*X'.).5._.).`.T.Y 3 l fXFXpXG.F.lXlX=X) D ' T.~.'.OXs.,XD.C.B.a._.`.`._.5.2.>.T i 4   ",
"FXSXxXqX<X+X.XXX'.Q.K M M T 2._.*X>X>XN.n.@X].(.] { (.|.T.T 1 h 5XzXuXm.;X;XiX>Xs.) L K T.).oXs.C.K.K.D.u.5.,.>.*.<.2.*.D s & . ",
"FXSXcX8XM.oX|.{.I.[ D q w E >.~.#X<X1X&Xp.a.Q.Y.{ -.E.(.>.D 1 z 5XzXiXm.m.j.B.%X%X1.K B Y.~._.a.f.f.d.d.$.<.>.T.| | [ T Z 1 o   ",
"FXSXkXF.%X@X|.E.K F 1.y.u.5.4.U.`.].@Xk.$.) R [ ' ;.T.;.[ M 1 / 5XzX5Xm.~ d d I 5.4.{ ..I.R.E.Q.E H t 6 d E -.Y.U D A M q < @   ",
"FXSXfXZ.OX!.Q.>.F i 3.OX*XOX5.>.I.T.5.3.H q q S Y =.&.U J q , / 5XlX5Xn.j > O 8 *.`.I...I.R.R.Y.L q - X - C -.Y.N q 8 8 q 8 , + ",
"SXcX;Xl.!.>.L Z ! 1.6.!.*X&Xa.<.[ U R I u C S S A A A D q 9 , z iXMX>Xk.$.s < : ;.:.:.:.Y.E.{. X`.} w X 1 Z { :.q 9 q q q w 1 4 ",
"cXsX&XoXQ.;.M 9 _ $.X.2.a.k.y.$.F u 9 9 q C S J C q q i w 3 , j =X>Xj.y.1.) Z M [ ' ' ' I.I.I.R.(.>.F 9 0 Z U [ 9 w q q q w 1 ; ",
"9X*XoX!.U...M w ( ( H E <.1.H e > - - > 9 u J U M < < - 1 ; + j s.j.$.H ) ) H w Z C A A ] ] U U ;.;.D w 1 0 w w 0 0 q q q 8 ; - ",
"q.q.<.=.| L 8 < j j e i E H 1 + + + O O > 0 P R 9 - - - 1 - @ j 8.$.s u i I G 8 1 1 8 8 q Z u 8 J A F G > , - ; 1 0 8 q 8 < - O ",
"l j a 2 p 9 > % + # + , ; 1 4 + X + 4 5 $ 5 7 , @ + , 1 - - , @ * j R Y C 0 < > 4 4 - O - > 2 , - - 1 7 5 4 & , ; ; ; ; ; - + + ",
"o.c v l z ^ ^ ^ j j d 0 + , 6 6 6 g z c / o.x g a s F D C q < 2 g _ 5.!.) ! W W z z h h h g 6 6 j ~ ( ^ ~ ~ z z W W W Q ~ ~ m m ",
"dXuXyXF.F.;X8XqX1X@X_.*.9 @ 4 h x 0.i.c.F.4XG.j.<.,.Y.Y.:.' : G k.1XeXeX&X,X>X5X5X4XL.C.t.m g h S.gXlX8XqXqX1X1X1X1X>X5X5X6X6X6X",
"SXAXvXcXcXxXMXnXeX2XwXE.I $ & h w.v.4XyXfXcXcXgXoX`.|.}./.I.B R 2XeXeX>XgXlXmXCXVXzXcXhXL.r.h k fXFXFXmXZXZXNXNXZXmXCXCXhXhXbXbX",
"cXkXdXaXyX9X;X*X!.~.{.(.R y * b z.yXF.A.A.G.yXiXOXoX~.R./.R.W.U.~.^.1._ f.4X5X4X4XF.D.D.x.r.g o.iXSXVXfXgX0X2X#X*X,X5X5X5XK.K.K.",
"aXuX4XF.m.m.n.h.^.U.W.>.#.v n b z.F.A.V.z.v.A.S.N.OX_.~.|.{.|.`.E.I.Y M p.C.C.m.e.w.u.u.$.Q 6 c pXSXvXfX:X$X`.`.1.9.p.x.V.C.K.K.",
"yXF.S.Z.j.j.n.oX`.W.` A $.8.b b z.F.v.z.e.g.v.m.D.&XOXoX+X+X$X#X X{.Y.>.j.C.C.d.k Q R =.=.P 4 c uXSXvXdX*X+X(.E.E d d _ p.f.V.D.",
";X-X@XOXu.h.k.oX|.W.A q ^ c g v z.F.v.e.e.z.v.A.4XF.&XOXa.h.oXoX`.[.[.|.$X1X,XB.6 d Y &.&.S , c uXSXvXgX<X].[.[.' C q H y.p.B.=X",
"M.@X+X).!.5.a.!.|.R.' S ! l y l b.G.g.0.b.V.G.yXyXF.N.s.<.*.*.=.I.R.[.[.(.'.k.i.7 8 S ] Y F , x uXSXmXqX_.E.}.}./.R.-.U i ! B.=X",
"a.5.`.(.>.*.<.2.`.R...L I a 4 l m.9Xb.w.b.V.G.;XZ.M.p.3.R [ ] } ;.,.R.R.[.|.h.y.e q L [ Y Z , x L.GXlX0X_.T.R.W.R.R.E.>.C 9 $.u.",
"*.>.I.T.{ [ [ &.U.U.:.[ i 4 $ v S.sXZ.g.b.m.S.-Xh.5.<.| ;.;.;.>.<.<.Y { E.|.+Xa.Z M Y *.[ F , x P.vXkX:XOX5.| B B ..E.|.U 8 s W ",
"U ] { ] J S J U } >.>.| 9 O o c F.fXG.b.b.Z.S.N.3.<.R R [ { { | ) ! Z q ;.T.!.5.Z Z [ >.[ F + x P.bXfX*X@X1.M : V L { T.&.A q ; ",
"U U J A M C A A K | 1.1.s > @ l F.kX9XZ.v.m.m.m.s.y.3.1.| U A M R H 0 8 Y J Z w w C A J M < @ k uXkX9X*Xa.<.Z : .. .' [ Y Y U J ",
"U U J C 9 9 q q A E ) ! s > @ h Z.iXS.b.b.b.g.p.y.$.$.1.| U A M D F 0 < F A C q w M A J M < X h G.yXZ.k.a.<.E N U.;.K A Y T J A ",
"U U A q q w w 8 8 8 0 0 w > o g g.S.z.w.e.w.9.$.#.R R | ;.{ K J J D H d M N A A M M A J M < X h t.H.z.w.y.<.| } U.-.` A U J A C ",
"U J C q w w 9 < ; ; ; ; 8 > o g w.b.w.9.w.9./ ! Y U Y ] >.;.{ U K E ! ! q N L K q M A J M < X h 0.J.0.8.$.X.2.>... .{ ' K A C w "
};
