/* XPM */
static char *_8e644d5033d4df78207bf89d35740ba[] = {
/* columns rows colors chars-per-pixel */
"64 64 237 2 ",
"   c #0B0500",
".  c #0E0A02",
"X  c #0F0808",
"o  c #130D05",
"O  c #1A0D04",
"+  c #140D09",
"@  c #190E0C",
"#  c #160400",
"$  c #161105",
"%  c #1A1204",
"&  c #16110B",
"*  c #1B150C",
"=  c #1D180D",
"-  c #1E1804",
";  c #1D0E15",
":  c #1C1511",
">  c #1E1912",
",  c #1E1C18",
"<  c #350F03",
"1  c #231502",
"2  c #2B1503",
"3  c #231A04",
"4  c #2B1B03",
"5  c #22140C",
"6  c #231B0C",
"7  c #2A1D0A",
"8  c #2A130B",
"9  c #341C03",
"0  c #331C0D",
"q  c #381603",
"w  c #241612",
"e  c #221C14",
"r  c #2A1E13",
"t  c #241D19",
"y  c #281818",
"u  c #391E11",
"i  c #2E0F07",
"p  c #2D220D",
"a  c #2B2407",
"s  c #362305",
"d  c #33240D",
"f  c #3C250A",
"g  c #3C2A0B",
"h  c #3A2504",
"j  c #262015",
"k  c #2B2315",
"l  c #26221B",
"z  c #2A241B",
"x  c #2E281E",
"c  c #322414",
"v  c #352916",
"b  c #3B2C15",
"n  c #332C1C",
"m  c #3A2E1D",
"M  c #382316",
"N  c #3C311D",
"B  c #3B3118",
"V  c #2C2621",
"C  c #2F2921",
"Z  c #322C23",
"A  c #392E23",
"S  c #352F28",
"D  c #3C2F28",
"F  c #342321",
"G  c #363025",
"H  c #3B3223",
"J  c #363129",
"K  c #3C342B",
"L  c #3E392D",
"P  c #3E3826",
"I  c #3E3730",
"U  c #3F3931",
"Y  c #3F3A30",
"T  c #451C07",
"R  c #551C00",
"E  c #4A2C01",
"W  c #422B0D",
"Q  c #482504",
"!  c #542B04",
"~  c #562806",
"^  c #4A330B",
"/  c #56330B",
"(  c #573204",
")  c #422E12",
"_  c #482A16",
"`  c #532816",
"'  c #42351D",
"]  c #4A331E",
"[  c #46381F",
"{  c #4A3615",
"}  c #583917",
"|  c #6D2D03",
" . c #632902",
".. c #772C09",
"X. c #6C3200",
"o. c #63380B",
"O. c #783608",
"+. c #642F14",
"@. c #663717",
"#. c #793416",
"$. c #7A2A1A",
"%. c #452D23",
"&. c #423423",
"*. c #4B3323",
"=. c #463A23",
"-. c #4A3A22",
";. c #40362B",
":. c #433C2C",
">. c #4A3D2B",
",. c #553B2D",
"<. c #5A3D2E",
"1. c #563D24",
"2. c #403B32",
"3. c #443D32",
"4. c #453F38",
"5. c #5B3F30",
"6. c #582B23",
"7. c #682A21",
"8. c #3D432F",
"9. c #59431B",
"0. c #69440D",
"q. c #784308",
"w. c #644315",
"e. c #6E4613",
"r. c #764C17",
"t. c #76551C",
"y. c #4E422B",
"u. c #484329",
"i. c #584627",
"p. c #464034",
"a. c #4C4434",
"s. c #464039",
"d. c #4B453C",
"f. c #4F4A3B",
"g. c #534533",
"h. c #554934",
"j. c #594D37",
"k. c #534C3C",
"l. c #584937",
"z. c #5E533A",
"x. c #644C27",
"c. c #6A522A",
"v. c #775323",
"b. c #675538",
"n. c #735A36",
"m. c #7A6239",
"M. c #7E602A",
"N. c #554E41",
"B. c #5A5343",
"V. c #5C5649",
"C. c #4F4A42",
"Z. c #645A48",
"A. c #665F51",
"S. c #6D6352",
"D. c #78684A",
"F. c #852E08",
"G. c #863809",
"H. c #953B08",
"J. c #853914",
"K. c #943D16",
"L. c #864906",
"P. c #95480B",
"I. c #8C4113",
"U. c #994814",
"Y. c #9B5815",
"T. c #895616",
"R. c #A6480B",
"E. c #A8570C",
"W. c #A44914",
"Q. c #AD5619",
"!. c #A15A1B",
"~. c #A95616",
"^. c #B75B19",
"/. c #AA651B",
"(. c #B96718",
"). c #B8711C",
"_. c #8D5A2E",
"`. c #865F38",
"'. c #86642B",
"]. c #9C782E",
"[. c #896932",
"{. c #856437",
"}. c #977332",
"|. c #B26423",
" X c #B26E35",
".X c #AA7332",
"XX c #AF5922",
"oX c #C06919",
"OX c #C76B25",
"+X c #CC7B2E",
"@X c #C77527",
"#X c #D57A2C",
"$X c #CB7B33",
"%X c #D97B33",
"&X c #D16C28",
"*X c #92774C",
"=X c #B7784D",
"-X c #968734",
";X c #AC8536",
":X c #B28B3C",
">X c #B18E36",
",X c #D38726",
"<X c #D88836",
"1X c #DA9938",
"2X c #C8943A",
"3X c #E4893B",
"4X c #E49738",
"5X c #C5A037",
"6X c #E6A238",
"7X c #99854E",
"8X c #DB8C44",
"9X c #DE9445",
"0X c #CE8B4E",
"qX c #E28E41",
"wX c #E99745",
"eX c #F39E52",
"rX c #C7A342",
"tX c #DBA84E",
"yX c #EAA746",
"uX c #F2A648",
"iX c #F6B74B",
"pX c #F8A756",
"aX c #FDBC55",
"sX c #FBB859",
"dX c #EAB84D",
"fX c #FAB960",
"gX c #EBC354",
"hX c #E4C455",
"jX c #FFC75A",
"kX c #FFDC6B",
"lX c #FCD763",
"zX c #F4DA6C",
"xX c #FAE66A",
"cX c #FEEA76",
"vX c #FEF679",
"bX c #FFF682",
"nX c #FFE280",
/* pixels */
"> > > > > e e e : : & + > > > > e * & + o o o o . X X X + + + + o o + + e e e e : > e t V V V V V z e : + o + & & & & + + + + + ",
"z z z z V z z l t e : : : : : : * * * * * * * * * & : : : : : * * & + + & & & & * : e l V V V V z t : & o + * * * * > e e e e e ",
"L L L L 2.L J Z V V z t : : : : * > e e j j l l l l z z z z V z l e * & + + + + + : t V V V V V z e : + o & e l Z J K U U U U U ",
"d.d.d.d.C.d.2.K S S C V : : : : * > e l x x x x Z Z Z Z S S S J C l e * & & & & . & t V V V V V t > & o o * l Z J I 4.d.d.d.d.d.",
"d.d.s.4.4.2.L J Z Z V z : o . + > e l z C x x z G L :.H K J L L x x x C t t t l + + + + t t t t e : & + * e z V C S U 3.d.d.d.d.",
"d.s.4.2.4.U K J Z Z V z > + o & e l z C Z Z G G 3.a.p.L L L K J x x x x C V V z + + + + * * * : : : * & e z V Z Z J I 2.s.s.s.s.",
"s.4.U L U K J Z Z Z C z e * + * l z x Z S J L 3.N.B.k.p.:.:.H S x x x x Z C z e + + @ @ & & & & & * * * z V Z J J J K K 3.3.3.3.",
"4.2.L K L J Z C Z Z C z l * * * l z Z Z G K s.d.Z.Z.B.a.p.:.G n x x C x C z e * + + + + + + + + + & : e V Z J J K K K J L L L L ",
"L L L L Z Z Z C Z C x C x e * * z Z K :.3.d.V.A.k.k.k.a.:.L A x n Z Z Z l e * $ . * e e o o o o   o * l C Z J K L L K L 2.2.3.3.",
"L L U L Z Z Z C C C x C x e * * z Z K 3.3.d.B.V.k.k.k.a.:.L A x n Z Z x e * & $ = z n x = = = = * * e e C Z J J L L L L K K K K ",
"L L U L Z Z C C C C C C z 6 * * k Z L :.p.p.k.N.k.k.k.d.3.K A x Z Z x e e * * * n L 3.3.Z Z Z Z Z z e e z C Z S K L K K Z Z Z Z ",
"L L U L Z Z C C C C C C z e * * k n L :.p.p.a.k.k.k.k.d.3.K A x Z z e e = * * = L d.k.f.L L L L L S z e V Z G G K L K K x x x x ",
"Z Z S Z Z Z Z C Z x l e x e * = j G L L p.p.a.k.f.a.p.:.K H A A A x e e $ * = l L s.p.L Z Z Z Z Z z j e x Z J L K K H Z Z z e > ",
"Z Z Z Z Z C Z C x z z l z e * * j G L L :.:.p.a.a.a.a.:.K H A A A x e e * * * l H L L H Z Z Z Z Z z j j x Z G K K J Z x Z z e > ",
"x x x x C Z Z Z l z z x z = $ * j G L L P :.:.3.a.a.a.3.K H A A A x j e * * > l Z H H n Z Z Z Z Z z j j z C Z G J Z x x Z z e e ",
"z z z z Z Z Z Z e l x Z k * $ $ k G L L H P :.:.p.a.a.>.*.%.%.m b M r e * * > l l x n x x C Z Z Z z j j j z C Z Z x x x Z z e e ",
"> e l z z z z x C x z j % % $ % k n H P H H P L 8.u.y.1.7.7.6.] ^ W k y 5 5 : , e j k k x n n n A z r 6 e l z n Z C C C x z j > ",
"e > * $ = = = = e e - * % % % % 6 k n m n A H P :.u.} @.$.$.6.` o.( d w 8 8 : , > = 6 6 n n n n Z z e - e e z z x z l l l j e > ",
"e = * & & * * * * * o o + % % % 6 j k n c n n B ] } @.O.F...+./ r.0.g 8 8 8 w * * % % % n n n n x j = * * r j l l e j j * * > > ",
"= e l z e e e > * & o o o % % % - r k k k k v b _ +.O.F.F.#.+./ T.e.W 8 < i w e % $ $ $ n n n n z r * % * e r j e = = = o $ * > ",
"o l s.V.L K G Z z z x x = = = = 6 6 6 7 k c c v ' } #.J...R T Q T.r.} T T q 0 r % % % % % % % % % o o o O O + + $ % $ $ + * * e ",
"  e s.V.4.U L J A A Z n x k 6 - % % % % 6 k c v B } #.K.J. .~ / L.q.~ q T T u 7 6 - % % % % $ $ k k 6 % 6 6 6 = * * * * * * > * ",
"+ e L d.L L J Z S Z z r - * % % % % % % 1 3 7 a h / J.W.W.G.J.J.P.L./ T +.` W 0 6 6 6 6 6 6 6 6 k.V.a.K n n n A z z z z Z e & + ",
"e z Z S Z Z z l x j - $ $ - k k p 7 7 7 7 3 1 3 a ( I.U.XXU.K.U.Q.Y.q. .#.+.Q 9 7 6 p k H P H H Z.S.B.a.:.:.:.L G G G G 3.Z e o ",
"x C Z Z S A Z Z z e % O o p y.Z.j.h.>.=.&.v 7 1 3 s ! | Y.!.!.|.qXqX/.P.P.O.~ 4 7 3 6 n B.Z.Z.a.k.h.a.a.H A n n Z Z Z Z 4.J l * ",
"x C Z Z A Z Z x j = % % O v z.D.b.z.j.l.h.=.d 3 3 s ! X.O.L.Y.|.3XwXoXE.W.F.! 9 7 1 6 N Z.S.Z.j.h.a.a.>.H A n n Z Z Z Z I Z e * ",
"C C Z Z Z Z x e e % O 3 N =.h.z.h.j.z.b.z.y.&.d 6 f  .X.X.X.P.|.%X3X(.^.Q.K.! 9 7 3 p m Z.Z.Z.a.g.y.>.>.H N n n Z Z Z Z S V e > ",
"C C Z Z Z x e e = % % p =.>.>.-.-.>.h.j.j.g.>.' p W ..G.X. ...R.&X%X(.E.Q.I.o.s 4 3 p b a.j.a.H y.>.>.=.H N n n Z Z Z Z V z e > ",
"C x C z Z l * % * % 6 n N ' ' [ -.>.y.y.-.-.-.-.p _ #.H.P.L.H.R.OX#X+XOXQ.I.! h 4 7 d b g.g.g.g.g.>.&.m A A n n A Z Z Z Z z e > ",
"Z x x z z e e * % 6 n H N ' ' [ [ -.-.>.-.-.-.-.0 _ #.K.P.P.R.^.&X%X#X@XQ.G.! f 4 7 c b >.>.>.>.>.=.&.m A A n n A Z Z Z Z z e > ",
"Z x x z e e e 6 6 n N m N ' ' ' ' [ [ [ -.-.-.-.0 ` #.K.P.R.^.%X#X3X<X+XQ.G.! f 4 p v b m m m N &.&.H m m A A A S S Z Z Z z e e ",
"Z x x z e e e r n H n v N N B B ' ' ' [ -.-.-.*.0 ` #.I.H.R.OXwX%X3X<X+XQ.J.! f 4 p v v v c c v m m m m m A A A S S Z Z Z z e e ",
"Z x x z l e r k n m n m &.' ' ' ' [ [ [ -.-.-.*.0 < R | F.R.@X9XpXpXqX@XG. .Q 9 4 p v m a.>.H v &.H A n A m A A A Z Z Z C z e > ",
"Z x x z l l l k n m n m &.' ' ' [ [ [ =.-.-.-.-.u q T  .G.R.+XwXpXpXqX@XP.| Q 9 4 p v N &.&.H H N N m m m m A A A Z C z l e * & ",
"C x x z l l l k v m n m &.' ' ' [ [ [ =.-.-.-.-.M q < R U.^.<XpXfXpX3X@X!.O.E 4 4 d v b v v m H v v n m m m A A Z Z z e e > + o ",
"C x z z l l l k n m n m N ' ' ' ' ' [ [ -.-.[ -.M f q R W.oX4XsXfXpX3X@X/.q.E 4 4 d b b k v n H k c n A A A A A Z z e e > * o . ",
"Z z l e r e z z n n n m H N N N N ' ' [ [ { ) f 9 # < ~ ~.(.,X6XiXuX4X@X/.L.! 2 { ' b b v c v v k k k r k k z l e e e e e = + . ",
"x l e = * e l z n n n m H H N N N B b b b ) g f 9 2 ( q.E.oX,X6XjXiX6X,X)./.r./ W d d d p p k r 6 6 5 e e e e e e e e e * * + . ",
"e e * $ + * r k n m n m H H N N N m p 4 4 s f g 9 Q t..X).,X6XiXkXlXiX6X<X$X X_.Q 2 1 4 1 1 1 1 - - - 6 e e e e e e e e + o o . ",
"e * + o o + * r n n n m H H N N &.v 3 % 1 9 h W h w..X0X<X4XjXlXcXxXjXiXwX8X0X=X@.h 1 1 % % % % O % - 6 e e e e e e e e . . . o ",
": @ & @   + : e k k k k c c c k p 3 3 3 O W x.n.} r..X8XuXaXkXbXvXxXdX1XpXeX8X0X`.b.1.) ' b c k k r 6 O w e r e e 6 = * + + + + ",
"@ + + X + @ : e 5 3 6 6 3 3 3 3 3 3 3 4 h 9.c.n.} e.!.+XuXaXcXbXxXlXdX1XpXwX+X X{.n.i.-.>.=.H A H z 5 o * * w e * + o o . . . . ",
": & @ + + + @ * % % % % % % % % - 3 3 3 i.x.c.x./ o.P.(.,X1XgXzXxXxXgXyXwX<X(.U.v.x.i.1.>.=.H G A l - o % % * * * % $ $ o o o o ",
"e e e > t e e e 6 6 6 6 6 6 6 6 6 3 3 3 i.x.9.^ / ( L.E.,X1XhXzXvXcXkXsX1X@XE.G.o.} { { ' B v k Z l 6 % * * % % e 6 > > & & & & ",
"j x J 3.V.N.3.K A A A A A A A n m m B B { ^ E E E ! L./.yXaXkXvXvXvXbXcXfX9X/.L.o./ ^ ) b m v k x Z z e e e z C G G G G l l z z ",
"n H 3.d.A.V.N.f.:.3.3.3.;.;.;.K P H N ' { { } w.@.e.Y.).uXaXkXcXcXcXcXkXfXtX;X'.r.x.} { d c v k l x x l e l V Z L L L L S Z Z Z ",
"n P p.k.B.k.k.a.:.:.3.3.;.;.P H H N m b ) 9.c.{.{._.|.+XwXyXhXhXhXhXgXdXtXrX>X-X[.m.c.i.g a p k r j l z e e z Z L L L L I K S Z ",
"n H :.a.:.:.:.:.;.;.K K H H A n n n v d g i.m.*X*X}. X2X2X1XrXrX5X5X5X2X>X>X-X-X7X*Xn.x.b d 7 6 6 e e l * > e z K J J K 2.L Z V ",
"x n P :.m H K ;.;.;.;.;.H H H n k k k p ' y.b.D.M.'.]..X:X:X:X:X:X;X;X;X].].].}.m.n.i.i.' v 7 % * * & & . & , z C D K K I J Z Z ",
"x n H L A H K ;.;.;.;.;.H H A x k k p p k n :.i.9.w.r.t.[.[.[.[.[.'.'.'.t.t.t.v.9.9.{ ) d 7 O o o o o o . o * e z C D K J Z Z Z ",
"n n n n A H K ;.;.;.;.;.H H n k 6 6 6 6 1 7 c b b g ) W W ) W ) ) g f g W W W W g h s d 7 1 O # o . . . $ & & > e z Z J Z Z Z Z ",
"n n n x A H K ;.;.;.;.;.H A n z - - - 3 6 7 k c M c 0 0 0 M c M u 0 0 0 7 2 2 4 2 4 4 7 7 5 O o . . . . * * * > e e z Z Z Z Z Z ",
"n n n n H P ;.;.;.;.;.H A z r 6 - - % % n A H =.,.<.5.5.<.<.<.5.l.<.<.<.*.] ] ] ] ] *.&.D F y @ & : > , , l l l e e e l V Z Z Z ",
"n n n n K ;.;.;.L K H n n k r 6 - - - - k z n m ,.,.<.<.<.<.,.<.5.,.,.<.*.*.*.*.] *.*.&.F y y ; : > , l l l l l e e e e l V Z Z ",
"n n n x K K L L J S x z z k r 6 - - % % - 6 j k k r k k k k r k k r r k k c c c c c c M y y ; ; : , l l l l l l C e * * e l C Z ",
"n n n x L L L L Z x l j l j r 6 - - * % + % = r r e l l j j e t l e e e e e e 5 5 5 5 * @ ; ; ; t t l l l l l l S e * o * e l C ",
"e e * t S I 3.L A Z x x l l e e * * * o e l V Z J J J J J J J D A A A S S A A A Z z r w : : : : : > t t l l l l C l * + + * l Z ",
"t e @ e Z K I J Z x x x z l t e e * @ + e t V Z S J J J J K K K K K K K K K K K Z x t e : * * * * > e t l l l l C l * + o + * l ",
"z t + : z S J Z C z z z z l t e e : @ @ & : t l Z Z S S S H H H J J D D D D D D z e > * * * * * * > e e l z l l C l * & . . $ * ",
"V l + * t V Z x x z z l z l t e e : @ + + * > t C C Z Z A A A A A A A A A A A A e e * $ * * * * * > e e l l l l C l * &   . . o ",
"l > + + : e t l e e e e z l t e e : & + + @ + + : e x Z S Z z k r t r z z r e 5 w e > = * * * * * > e e z z z z * * * * & & & & ",
"t : & & : : e e e e e e l e e > e : & + + + + + + & * e e e * * * * 5 5 w 5 O O o + + o + + + + + & * > e e e e * * * * & & & & ",
"e : * * & * > e e e e e e e : : : : & + + + + + + o + % * + + + O O O O * O o #                 . o + & & & & & * * * * > > > > ",
"e e : * + & * > e e e e > > * : : : & + + + + + + o + o o o o o o o o O O o #                       o + o o o o * * * * , , > > "
};
