/* XPM */
static char *_ecdf43b98244a3f93433efbf21f2ba2[] = {
/* columns rows colors chars-per-pixel */
"64 64 255 2 ",
"   c #0D0800",
".  c #130300",
"X  c #1B0600",
"o  c #140C01",
"O  c #1B0D00",
"+  c #15060A",
"@  c #0D1700",
"#  c #131400",
"$  c #1C1300",
"%  c #1C1B01",
"&  c #1A1808",
"*  c #220C00",
"=  c #2A0E01",
"-  c #260905",
";  c #241400",
":  c #2C1401",
">  c #241C01",
",  c #2B1C01",
"<  c #2B1B0A",
"1  c #26140B",
"2  c #311601",
"3  c #331D00",
"4  c #3A1D00",
"5  c #371806",
"6  c #2D100B",
"7  c #0E2400",
"8  c #1B2300",
"9  c #1C2B00",
"0  c #182505",
"q  c #1D3300",
"w  c #1C3A00",
"e  c #143503",
"r  c #242301",
"t  c #2C2301",
"y  c #252D00",
"u  c #2D2C00",
"i  c #272609",
"p  c #342301",
"a  c #3A2401",
"s  c #352B00",
"d  c #3C2B01",
"f  c #3C2C0A",
"g  c #37260A",
"h  c #253401",
"j  c #2D3400",
"k  c #253A01",
"l  c #2C3C01",
"z  c #2A390A",
"x  c #343301",
"c  c #3D3200",
"v  c #333A00",
"b  c #3C3C01",
"n  c #38370A",
"m  c #392711",
"M  c #3E3411",
"N  c #422401",
"B  c #432C01",
"V  c #4A2C01",
"C  c #412409",
"Z  c #442C0A",
"A  c #492A06",
"S  c #512D01",
"D  c #443301",
"F  c #4A3401",
"G  c #443B02",
"H  c #4C3B02",
"J  c #44320A",
"K  c #4B350A",
"L  c #4C3B0A",
"P  c #453B0A",
"I  c #533601",
"U  c #533C02",
"Y  c #5B3D01",
"T  c #52350B",
"R  c #543C0B",
"E  c #5A3E0A",
"W  c #5A3707",
"Q  c #4A3811",
"!  c #553C13",
"~  c #472D13",
"^  c #613E02",
"/  c #633F09",
"(  c #184903",
")  c #1B5402",
"_  c #1D5806",
"`  c #184A10",
"'  c #234101",
"]  c #2C4100",
"[  c #234B02",
"{  c #2C4C01",
"}  c #26490A",
"|  c #334400",
" . c #3D4301",
".. c #324B02",
"X. c #394A07",
"o. c #235401",
"O. c #2C5302",
"+. c #2B5C01",
"@. c #275709",
"#. c #3B5404",
"$. c #325D03",
"%. c #375908",
"&. c #275713",
"*. c #375A11",
"=. c #344313",
"-. c #1B6500",
";. c #2C6302",
":. c #256604",
">. c #356304",
",. c #3C6404",
"<. c #386609",
"1. c #2B7403",
"2. c #397308",
"3. c #3B6614",
"4. c #2E6C18",
"5. c #434401",
"6. c #4C4201",
"7. c #444B01",
"8. c #4C4B02",
"9. c #4C4A0B",
"0. c #544302",
"q. c #5B4402",
"w. c #554B02",
"e. c #5C4B02",
"r. c #55420B",
"t. c #5B430B",
"y. c #554A0A",
"u. c #5D4A0B",
"i. c #495502",
"p. c #4B5B02",
"a. c #455706",
"s. c #555201",
"d. c #5B5402",
"f. c #545C04",
"g. c #5B5B02",
"h. c #59590A",
"j. c #554412",
"k. c #594414",
"l. c #5F4C12",
"z. c #5C4D1D",
"x. c #475B14",
"c. c #4D4C14",
"v. c #634402",
"b. c #6B4501",
"n. c #644B02",
"m. c #6B4C01",
"M. c #62450C",
"N. c #6B450C",
"B. c #644B0B",
"V. c #6B4D0B",
"C. c #724D01",
"Z. c #724D0B",
"A. c #794D0B",
"S. c #645302",
"D. c #6C5302",
"F. c #645B03",
"G. c #6C5A02",
"H. c #63520B",
"J. c #6C530B",
"K. c #6C5B0B",
"L. c #645B0B",
"P. c #735403",
"I. c #7A5503",
"U. c #735A04",
"Y. c #7C5C03",
"T. c #73550C",
"R. c #7A540B",
"E. c #745C0B",
"W. c #7B5C0B",
"Q. c #624C13",
"!. c #6B4C14",
"~. c #634815",
"^. c #704C11",
"/. c #655212",
"(. c #6B5314",
"). c #6B5912",
"_. c #665717",
"`. c #735412",
"'. c #745B14",
"]. c #7C5B13",
"[. c #755C19",
"{. c #78561B",
"}. c #436301",
"|. c #4C6B03",
" X c #476707",
".X c #536501",
"XX c #586907",
"oX c #4B730B",
"OX c #497803",
"+X c #577807",
"@X c #486715",
"#X c #5A6813",
"$X c #457718",
"%X c #597719",
"&X c #636301",
"*X c #636C02",
"=X c #6A6C01",
"-X c #6B620C",
";X c #696909",
":X c #746202",
">X c #7D6304",
",X c #73610C",
"<X c #7C630C",
"1X c #776B06",
"2X c #647303",
"3X c #6A7301",
"4X c #627902",
"5X c #687C0C",
"6X c #777406",
"7X c #696A14",
"8X c #7B6013",
"9X c #746515",
"0X c #667718",
"qX c #767813",
"wX c #6D6823",
"eX c #835C02",
"rX c #835C0B",
"tX c #865806",
"yX c #835C14",
"uX c #846403",
"iX c #8C6B04",
"pX c #83630D",
"aX c #83690A",
"sX c #8C6B0C",
"dX c #8A6607",
"fX c #95690C",
"gX c #877107",
"hX c #987609",
"jX c #846413",
"kX c #8A6412",
"lX c #8C6B13",
"zX c #83661C",
"xX c #8C6A1B",
"cX c #846917",
"vX c #916816",
"bX c #8A7316",
"nX c #987616",
"mX c #A47719",
"MX c #886922",
"NX c #967321",
"BX c #A57D24",
"VX c #338119",
"CX c #5C8407",
"ZX c #528A13",
"AX c #658405",
"SX c #668515",
"DX c #748619",
"FX c #749515",
"GX c #6F8B0C",
"HX c #7C8822",
"JX c #98851A",
"KX c #A48318",
"LX c #A4800F",
"PX c #9F8624",
"IX c #A88022",
/* pixels */
"8 8 % > O * : : : , , : - - = 5 X o $ t r > > > , , , , > > % % i & o   ; , , ; 1 O $ > t > o   $ > % # @ # & 1 X * , , ; > , < ",
"% % > < O ; : 3 , , , 3 4 N N N 3 , p d D L L L V V V B K D s u z z i , d F F d 3 , p D D c p , d f i % o % g m a B F H R F d 3 ",
"o & < p p a B F d , , B '.zXzXZ.V.^ Y v.].xXbXlXrXrXP.Z.zX'.n.8...{ b F yXlXxX].N.N.T.xXlXpXW.P.T.B.G t ; p R !.`.W.pXkXxXpXm.^ ",
"+ & t d U q.v.n.G > , F bXPXnXY.jXR.C.C.jXnXKXhXhXfXdXY.NX8Xn.7.%.,.s.m.mXmXBXNXR.rXvXBXIXmXfXiXbX<Xq.p 3 F `.xXkXsXnXnXnXlXR.b.",
"+ 1 a H U.aXsXcXw.s p H cXgXuXP.P.m.b.v.m.Y.gXhXdX>XU.D.S.e.H v { %.;XaXtXtXtXrXC.P.P.P.lXsXiXiXiXdXT.q.V V R.xXP.m.U.D.q.Y Y W ",
"+ < F v.uXhXnXjXw.c d H U.>XuXP.D.m.m.m.v.m.Y.>X>XU.G.H.0.G c u w ..;XgXuXtXrXW.P.C.C.m.P.Y.iXhXY.I.D.n.H I b.W.D.n.n.Y F F F T ",
"* a q.Y.hXhXfXI.w.6.G H U V.].R.m.P.P.P.P.P.P.P.U.G.D.H.6.D s t 8 h *X6X6X<XK.G.P.C.b.^ v.C.uXhXI.m.e.q.0.U I Y W.<XG.n.H F V A ",
"; B D.iXhXhXtXb.u.y.0.H N E {.{.V.J.T.W.P.P.m.v.n.n.n.B.0.K d p # 9 .X5XqX9XG.D.I.C.^ I v.m.I.uXrXb.U U q.U N V V.zXU.G.v.U V a ",
"; d aXKXhXfXtXR.M.t.Y I 4 I !.!.q.Y n.q.q.Y Y Y v.v.q.H D B A ~ t h ,.oXi.w.Y.I.b.v.q.U 0.q.n.m.eXeXP.^ v.I V N V Y :X>XP.v.I K ",
"; d aXKXfXfXtXZ.v.t.E E V F E t.q.0.q.Y q.Y Y Y v.q.U F D A A Z > 0 o.$.| 6.>XkXm.M.0.6.6.w.B.m.dXiXeXC.v.Y V N 3 K >XiXP.t.H D ",
"$ d aXKXsXrXP.n.0.0.t.u.H F D H v.v.U I q.q.q.q.q.Y U I I F B s % 7 ( o.h b 9XzXJ.H.w.w.0.q.n.m.dXiXuXU.n.q.H B , D E.<Xn.U B d ",
"$ d cXKXpXW.H.e.H 0.e.B.e.0.c d q.q.F F q.e.e.u.H F H H U D x y q e ) ) w v #X7XL.L.d.e.0.q.n.m.Y.uX>XP.n.q.H D p J ).K.q.D p p ",
". a 8XlXD.e.6.b 6.e.).9Xe.0.F d w.0.G D 6.0.0.0.s c D G G 7.a.%.[ _ -.:.+.$.>.}.#Xf.w.6.q.e.n.n.b.b.m.n.q.F d , t f F 0.F d p t ",
". 3 J.:XD.w.7.7.f.h.7X7Xh.s.8. .p.i.7.5.5.G G D x v 5.7.a. X X<.o._ -.-.o.o.+.;. Xp.s.e.8XT.n.q.Y Y Y U F d p t > t d D D d t r ",
"1 ~ [.<Xe.7.X.%. X|.oXoX%X%XoX,.<.<.%.a. .b c d x | #.<.<.2.2.;.[ ( ( ( ' ' o.o.,.}.f.K.zXW.v.U I F V d p p t t # % t f J f i i ",
"; g /.J.D b X.X. X<.,.,.,. X,.+.$.*.*.*.#.| v j l ..3.$X;.;.+.[ q 9 7 7 h h ] [ >.,.|.7XL.n.q.H F d p , ; , t t   # > t M f i i ",
": , p a * ; t u h h j v h ] ' w 9 % r k [ o.o.o.@.@.} [ e e 9 y t t > $ ; > t 9 +.1.1.+.| G I E f > $ O ; , , ; o # $ > > > r r ",
"I F B a 2 3 N D t s d d s x 9 @ $ O $ 9 &._ ) ) _ @.} ' 9 r t p p 3 6 6 : p d v $.1.1.:.7 t B L t $ o $ p D F B t p s d d d d d ",
"hXiXY.P.v.b.T.].v.B.Z.Z.V.H. .r $ X # e &._ [ ' { ] j j s d d a a 3 6 - 3 d H y.p.oX2.>.9 r s s > $ > p r.H.G.G.Y t.M.M.M.t.t.t.",
"hXhXiXiXP.I.pXxXyXyXyXzXzX9X7.y 8 & 0 w &.@.| x b v x s H I I I a 4 : = p D u.).g.#X$X<...v j > > > s L H.,XgXsXP.T.].yXT.T.T.T.",
"Y.uXuXsXI.m.m.I.W.W.P.D.F.XX|.>.&.` ( ) :.,.g.D.q.U H H M.!.!.{.t.a = * r.H.H.F.S.7X%X%Xx.5.x % $ , z.wXG.U.uXuXeXI.C.C.rXrXrXrX",
"v.b.m.P.P.P.P.P.P.D.n.e.s..X}.;.&.` ( o.+.p.G.P.`.B.q.U v.N.V.!.t.B : : Q.H.H.S.S.9X0X%Xh.5.b t ; 3 l.9XP.I.Y.eXY.I.I.I.I.I.I.I.",
"H U Y q.G.:X:XU.m.b.v.q.s. X<.+.} z u v 7.h.E.P.J.J.J.v.Y q.B.B.q.B p a _.H.S.e.e.-X%X#X8.G L d 3 a Q.{.T.R.A.A.P.P.P.U.P.P.P.P.",
"F H U 0.G.1X1XG.b.b.v.0.i. X<.%.q > : p w.L.E.T.J.V.V.V.Y 0.e.B.U D d K /.H.e.w.w.g.XX.X5.G F N 4 a M.T.R.T.^.N.m.D.W.W.D.D.D.D.",
"U q.u.n.,X:XG.n.Z.N.v.w. XoX3.*.k % ; F '.'.).H.J.n.n.e.U 0.q.B.F F F D D H 0.0.e.d..X.Xf.5.D 4 * a {.MXR.m.M.R H.n.e.0.e.S.G.E.",
"U 0.q.e.E.D.n.e.^ ^ q.7.,.2.<...h r d e.].T.V.n.n.e.q.q.0.q.q.q.U H H H H H 0.0.e.d..X+X|.i.D a * a !.].m.q.H L e.e.0.0.e.n.S.H.",
"H U 0.q.J.n.e.0.I U G  .,.>.O.k 9 u 0.[.T.m.e.q.e.q.q.q.q.q.q.0.0.0.0.0.0.0.H H U s.|.%XoXx.G B , a ~.b.^ Y U H 0.0.q.e.e.e.e.q.",
"D H U 0.e.q.0.U H F b | #.%.] 9 8 b _.MXm.n.q.0.Y q.q.q.B.q.Y U q.q.0.t.r.0.H D G i.oXZX$X3.7.c t s r.Y Y Y 0.R U 0.u.H.B.u.0.U ",
"V K t.Q.u.e.e.e.j.c.a.#.| l y r # x /.[.T.m.B.q.q.t.t.q.0.t.t.Q.u.r.U F R t.l.w.a.OXZXVXVX4.3.x.h n G U q.q.U H t.t.u.l.r.0.H F ",
"V K R t.t.q.q.r.P c.x.@X| x u t # x u.).m.n.e.q.t.t.t.t.H R t.t.r.H B d D F 0.8.|.OX2.:.4.4.>.%.' z b G 0.Y U H t.t.k.t.r.R H F ",
"Z A K K H U U H n =.*.@X| c p , % u 0.n.q.Y Y U I I I I B F H I H D d a d D D 5.|.}.#.] | ..O.+.} } v c H U H H H H H L L K D B ",
"~ Z Z B B D D c v z } ..b D a , % u L 0.B B D D A Z A J p a d D D c d s s d x j ,.O.l y x x | ..O.} l j D F D D p p a a D B d a ",
"5 = : p 3 t t r h l k 9 % , 3 p $ > t d t , > ; * : m m ; > t i n u t > $ 9 ' *.O.[ w 9 r , t t 9 w { ] r ; 3 , > $ > p p 3 3 3 ",
"5 : 3 f x x j j |  . .x t p d D p d B D d d a a : : : < O O & % 8 8 > > r k $.<.%...] j s d V B 5...,.%.x 3 3 , $ $ ; , d d V B ",
"< , s G #X#XXXXX;X9X9X/.0.e.n.m.U.U.E.E.D.G.P.T.M.F 3 3 : ; 1 &   # r j .X5XAXCX.Xf.s.w.).`.yX].,X;XSX%Xy.F F p t > t d H U t.M.",
"> r c 8.0XCXAX5X6XbXxX].T.W.Y.uXlXlXsXsXuXdXsXlXT.v.U B 3 , 1 1 o % x 7.5XGXAXAX&X-X-X,X8XjXvXxXbXqXDX5X-Xn.n.H d p d F q.B.^.{.",
"# t 6.;XGXCX+X*X:XI.m.v.b.T.jXnXY.Y.pXpXP.I.Y.rXm.D.V.t.B , ; < > n wXDX3X3X*XF.:XU.G.m.pXrXtXI.:X3X5XSX=X:X:XS.d d 0.n.e.q.v.^.",
"$ s S.bXFXAXXXg.>XI.C.v.v.V.E.jXm.m.C.P.P.P.R.R.P.W.T.B.D 3 , < > x 0XDX3X=XG.D.U.G.m.b.pXY.I.P.:X=X2X2X2X3X=Xg.c D H.K.m.v.v.N.",
"$ D W.JXGXAXXXd.W.I.m.v.q.e.S.G.q.q.v.v.T.T.J.D.P.W.T.B.U d p , > n 0XDX*XF.m.Z.P.m.n.e.E.U.D.n.U.:X&X.XOXOXOX}.x D H.,XD.v.Y Y ",
"; H lXJX3X2X-XS.].R.b.v.0.0.w.e.U Y q.q.T.J.V.n.m.J.V.q.t.D d , > n 0XDX.XS.P.Z.m.n.e.q.K.D.S.e.U.G.S.f.}.2.2.$.y d u.K.S.q.I I ",
". d bXJXF.S.S.P.J.V.q.q.(.Q.u.q.U Y e.n.n.v.Y U D F H r.L P d , t  .SXFX6X:XW.'.U 0.q.e.e.e.0.H 0.e.n.S.i.#.;.+.j d 0.Q.r.0.H F ",
"O p K.6XS.m.P.T.V.t.Y U Q.M.t.t.E Y q.e.n.q.U F D c D G D D d , > x +XGX=XG.D.J.U 0.e.e.e.e.0.0.0.0.e.e.G  .+.$. .H r.j.L D c d ",
"< p G G.D.P.U.T.v.U H F 0.t.t.t.t.t.q.Y q.U F B D c c c d c d p ; x +XAX*XF.H.n.H 0.q.e.0.0.q.e.6.H U H s v #.}.h.l.r.F B d d d ",
"g p p q.G.U.P.J.v.U F B H U t.t.k.k.R I H F B d D c d s s c c d ; s #X5XXXg.d.u.H Y t.u.H 0.u.l.L F F B d b #.i.wX_.r.D d d d d ",
", p f H E.<X].{.!.t.t.0.U F D F R K K J p a D P d c D D D c d d * , h.HX0X#Xy.F F H H H H r.r.H d d p B u._.s.h.z.Q Z d K L F F ",
"; , g J e.m.T.`.{./.Q.u.t.U D d D J f f , p d c c D G P D c s p * 2 w.7X%X@X9.P j.k.k.r.R R F d p t ; p l.).q.r.Q Z d a D D D D ",
"O O : a F I Y v.(.Q.t.q.q.Y H B d f g < * ; , p c c D G d s p 3 = = F s.@X%.9.L j.k.k.k.K B a 3 t > O , r.B.I V B d a a d d d d ",
". X ; 3 a N V F Y r.H F F F F D s t < ; X O ; , s s d d d p p , = = d  .,.+.X.X.P K K Q d p , ; r > o ; B H N 4 d s s p p p p p ",
": ; $ $ . O : 3 p p p p p > , p > > > >   . O ; p , = = : 3 p t , ; r k ) -.:.O.j t , u % # # # 0 % #   $ ; ; * ; ; > , , , t p ",
"I B p , X 1 a V d d d d d p , , ; $ > t ; , 3 a B a 4 : : ; , t p s l O.:.:.:.O.v d p t % # # # 0 % # # $ O O ; p d d d p d B D ",
"hX>XB.! * 5 W V.P.P.T.T.{.B.V a $ $ , Z T W / N.T.'.).6.t % > d q.F.+XZXZXOX|.g.G.J.e.R p , > > 0 0 % % > $ ; a Q.E.J.n.e.n.J.'.",
"LXiXn.K * C N.kXpXpXpXjXMX].Y 2 O 1 C I Z.A.].pX>XbXqXp.l 9 y 5.g.2XSXZXFX5XF.D.cXcX].B.F f g m > r r r t , p L 8XxXkXP.m.P.pXxX",
"rXR.E Z 2 C ].pXU.m.m.].`.^.N.T ; 1 ! `.rXY.G.S.>X6X3X+XoX;.o.+.,.OXZX+XXXs.J.T.P.P.P.`.~.T C , o $ % > , p K (.yXrXI.I.I.W.rXkX",
"P.V.t.B * 2 v.W.U.G.D.T.V.B.t.! < g !.yXeX:X&X&X6X=X2X+XoX2.;.;.+.,.+X+Xs.U t.v.v.m.P.'.~.K B p $ $ > , a F u.[.R.I.I.I.rXI.P.C.",
"D.D.w.G $ O B n.,X-XF.e.0.0.U L p f T.sX:X=X+X+X5X;X&Xg.;XXX.X7.|  .-X9X0.D R Y Y v.B.(.t.K d p ; > , d H B.`.E.P.P.P.P.U.m.v.Y ",
"G.K.L.y.> $ , d -X;XF.6.G G D D p Z ].bX:X3XCXZX0X7XF.e.S.F.s.G c D J.8Xq.F 0.Y q.q.t.r.j.J c s , , d H e.J.E.G.n.D.P.W.n.v.q.Y ",
"D.G.K.u.G > > p F.,XH.I B a a p ; p !.W.G.&X+XCX*XS.q.I n.e.0.6.3 B v.J.Y q.e.e.U H H L j.P J f ; 3 e.<X<XE.K.J.Y Y n.m.q.v.n.V.",
"D.U.'.B.G t > t F.E.M.K C g a a ; p !.W.G.&X4XAX*XS.q.I Y Y F D B H Y M.q.q.e.q.0.H L L P J f p ; a U.bXW.D.e.e.e.e.v.v.q.q.M.M.",
"D.E.'.Q.L t $ > H.K.t.F B C C a > d J.pXG.&X4XAX*Xh.0.I U I D D I t.Y q.q.q.Y H H 6.L L D d p , ; B ].xXm.Y H 0.J.n.e.Y t.q.E R ",
"J.`.[.Q.J f t > u.H.q.B V B B B , c E.pXG.&X4XCX#Xh.w.H I F D d r.Q.r.H u.r.H D D L r.L d p , , : B {.].Y I F 0.).B.q.H t.R R K ",
"Y q.Q.~.a , $ O p U t.t.R F B 3 t c J.Y.D.d..X|.%Xx.9.L F B d d r.y.6.F H D d p d D G D p p p p : B v.V.^ I F 0.l.r.F d L K Z p ",
"Y U E ! a < $ O : D t.u.H F B a > s V.T.n.w.p.,.@X*.X.G d a p p L r.G c c d s p d c c d p p p p , d I ^ W I H 0.r.L D d Q f p , ",
"I F F Z p < O X X a t.B.F D V f $ t u.V.t.6.X.{ 3.O.] x p 3 3 , D G c s p p p s c c d s p p f Z p a N S S W 0.0.G c f p f g < < ",
"I V N p g < O X * : F q.B B B Z O , R M.R D j w *.[ k y , 3 3 , c b x u t t p s c D d p p p Z Q a 3 4 N N W t.0.d s s p g < < < "
};
