/* XPM */
static char *_9a0b8e8265c4885a733fee763cfc169[] = {
/* columns rows colors chars-per-pixel */
"64 64 217 2 ",
"   c None",
".  c #1A2C2A",
"X  c #182B27",
"o  c #1D322E",
"O  c #1C3535",
"+  c #1D3936",
"@  c #1E3738",
"#  c #1E3A3A",
"$  c #173432",
"%  c #1D2F30",
"&  c #233635",
"*  c #243D3D",
"=  c #2A3E3E",
"-  c #253837",
";  c #333F3B",
":  c #25423E",
">  c #29413F",
",  c #273F41",
"<  c #264241",
"1  c #2B4443",
"2  c #2D4945",
"3  c #2D4748",
"4  c #2E4B4A",
"5  c #314945",
"6  c #344D4C",
"7  c #394E4D",
"8  c #344746",
"9  c #2F534D",
"0  c #34514E",
"q  c #39504E",
"w  c #314E50",
"e  c #394F50",
"r  c #2F5450",
"t  c #355352",
"y  c #3B5453",
"u  c #365A55",
"i  c #3B5955",
"p  c #3D5B5A",
"a  c #3A5858",
"s  c #3F625D",
"d  c #3F5E61",
"f  c #3D6160",
"g  c #434D4F",
"h  c #405555",
"j  c #425A56",
"k  c #435C5C",
"l  c #4A5E5D",
"z  c #46544F",
"x  c #43615E",
"c  c #4B625E",
"v  c #50635F",
"b  c #445D61",
"n  c #495F63",
"m  c #456462",
"M  c #4B6464",
"N  c #456A65",
"B  c #4B6A66",
"V  c #4D6568",
"C  c #4D6B6A",
"Z  c #466D6B",
"A  c #526565",
"S  c #516966",
"D  c #536C6B",
"F  c #596C6C",
"G  c #526669",
"H  c #4D716C",
"J  c #54716E",
"K  c #5A716E",
"L  c #566F71",
"P  c #547372",
"I  c #5B7473",
"U  c #567975",
"Y  c #5B7A76",
"T  c #5C7C79",
"R  c #577979",
"E  c #4F7171",
"W  c #617674",
"Q  c #617A76",
"!  c #627D7B",
"~  c #6C7D7B",
"^  c #627778",
"/  c #707A79",
"(  c #5E817C",
")  c #63817D",
"_  c #6A827F",
"`  c #647E80",
"'  c #687E80",
"]  c #658281",
"[  c #6B8483",
"{  c #6D8986",
"}  c #6D8A8A",
"|  c #688786",
" . c #738585",
".. c #718987",
"X. c #748C8B",
"o. c #7C8C8C",
"O. c #768687",
"+. c #74918D",
"@. c #7A918F",
"#. c #768F91",
"$. c #769392",
"%. c #7C9493",
"&. c #7C9995",
"*. c #7D9A99",
"=. c #7C9799",
"-. c #82928F",
";. c #829493",
":. c #829A96",
">. c #849C9B",
",. c #8C9D9B",
"<. c #8B9795",
"1. c #939B9A",
"2. c #999B9D",
"3. c #949597",
"4. c #848E8D",
"5. c #85A09C",
"6. c #8CA29E",
"7. c #97A09F",
"8. c #849EA0",
"9. c #8B9EA2",
"0. c #87A2A3",
"q. c #8BA4A3",
"w. c #8CA9A6",
"e. c #8EA7A9",
"r. c #8EA9A9",
"t. c #92A5A5",
"y. c #9BA1A1",
"u. c #93AAA6",
"i. c #94ACAB",
"p. c #9BADAC",
"a. c #97A7A8",
"s. c #9BB1AE",
"d. c #96B0AE",
"f. c #9BAEB1",
"g. c #96AFB2",
"h. c #96B1B1",
"j. c #9BB3B3",
"k. c #9EB9B5",
"l. c #9EB9BA",
"z. c #9CB6B8",
"x. c #A2ADAC",
"c. c #A2A7A7",
"v. c #A1B1AE",
"b. c #A3B4B3",
"n. c #AAB4B4",
"m. c #A3B9B5",
"M. c #A9BAB6",
"N. c #A4BBBB",
"B. c #ABBCBC",
"V. c #A3B7B8",
"C. c #B4BDBD",
"Z. c #BABDBE",
"A. c #B3B7B8",
"S. c #ACC1BE",
"D. c #A6C0BD",
"F. c #B0C1BE",
"G. c #A9BEC0",
"H. c #BCBFC0",
"J. c #B0BCC1",
"K. c #ADC3C3",
"L. c #ACC6C6",
"P. c #B4C4C3",
"I. c #BCC3C3",
"U. c #B3C9C5",
"Y. c #BBC9C7",
"T. c #B5C6CA",
"R. c #B5CBCB",
"E. c #BBCCCB",
"W. c #BEC7C9",
"Q. c #BBD1CE",
"!. c #BCCFD1",
"~. c #BDD2D2",
"^. c #BFD8D6",
"/. c #C3CCCC",
"(. c #C5C9CA",
"). c #C5D1CF",
"_. c #C8CED1",
"`. c #C3D4D3",
"'. c #CAD4D5",
"]. c #C9D9D7",
"[. c #C4D7D9",
"{. c #CCD6D9",
"}. c #C5DADA",
"|. c #CCDCDC",
" X c #C5D9D6",
".X c #D2D6D7",
"XX c #D5DBDC",
"oX c #D9DCDD",
"OX c #D3D6D8",
"+X c #CDE1DE",
"@X c #D3E1DE",
"#X c #CBDFE1",
"$X c #D5DEE1",
"%X c #CDE3E2",
"&X c #D3E3E3",
"*X c #DBE4E4",
"=X c #D6ECEB",
"-X c #DDEDEC",
";X c #DBE8E8",
":X c #DCF0ED",
">X c #DBEEF1",
",X c #DEF3F4",
"<X c #E1E6E6",
"1X c #E2EBEB",
"2X c #E9EEEE",
"3X c #E7EEF1",
"4X c #E3F4F3",
"5X c #ECF4F4",
"6X c #EAF9F6",
"7X c #E4FAFA",
"8X c #ECFBFA",
"9X c #E8F6F9",
"0X c #F2F4F5",
"qX c #F4F6F9",
"wX c #F5FCFD",
"eX c #FBFEFF",
"rX c #E4F0EE",
/* pixels */
"                                                                                                                                ",
"                                                                                                                                ",
"    3.n.y.2.3.<.1.1.,.,.1.1.1.1.1.1.1.1.1.1.2.y.A.H.(.1.                3.A.c.2.2.1.1.1.,.,.,.1.,.,.,.1.,.,.,.1.2.2.1.1.,./     ",
"    H.qXoXOX_.(.W.Y.Y.Y.W.Y.I.I.I.P.C.C.Y.(.'..X2XeXeX(.                Z.2X'.(.I.I.I.I.Y.Y.Y.Y.U.U.U.P.U.U.U.P._._.).).S.;.    ",
"    I.eXqX2XOXI.b.b.P.P.v.b.Y.W.n.y.7.a.y.n.I.'.).XX1XW.                P.;XC.p.p.p.p.p.F.Y.Q.U.b.s.s.p.t.b.R.|.1X5X%XN.:.k     ",
"    I.eXeXeX2XOXI.I.`./.P.F.'.'.Y.n.x.b.n.C.)..XXX-X9XE.                E.4XE.B.B.B.B.B.`.].'.W.p.v.b.M.M.P.`.|.5X-XQ.w.) 6     ",
"    I.eXeXeXqX2X2X1X0X2X1X<X5X5X5XXX).).&X;X4X8X8X8X8X].D o & - X X . l ].eX4X;X1X1X1X1X2X2XoX/.W.'.&X1X1X1X5X5X&XU.>.) B 2     ",
"    (.eX0X0XwXeX2X<X2X<X<X;X2X1X5XXXW.I.@X&X-X1X@X&X&Xm.K 6 1 q 1 > o j 6.@X+X&X*X*X*X*X&XXXY.x.b.P.].;XXX|.'.`.B.6.T x x 2     ",
"    Z.0X*X<XeX5XQ.m.b.n.b.M.m.m.M.M.b.M.M.b.x.p.t.O.[ M 6 6 x i 4 1 + > y F @.6.,.t.p.b.6.,.%.o.@.@.o.O.o.o.W Q ! I B B M 7     ",
"    Z.0XOXOXqX1XB.u.s.b.b.m.m.N.N.M.n.M.M.b.p.t.;.O. .G j 0 m m 9 : + 6 y W  ...o.;.,.t.t.q.,.:.5.:.o.O.o.~ j q l x x s M 7     ",
"    Z.0X.X.X0X;Xv.s.'.2X;X-X-X:X:X-X-X-X4X&X`.E.B.P.~.j.D i C U 0 : # k t.Y.B.M.M.C.Y./.&X&X&X&X&X&XXXOX.XA.^ l l k p u M e     ",
"    Z.0XOXoXqX1XM.B.;XeX5X5X8X8X6X6X6X6XwX-X|.Y.P.|.4XQ.Y p J ] t : * B  XwX&X'.W./.|.XX5X5XqXwXwXeXeXqXeXXXo.A M x p i M e     ",
"    Z.0XOXoXqX1XM.b.1X5X/.C.].@X+X@X&X+X|.|.`.Q.`.`.|.N.[ m T R t : 1 Q }.9X&X`././././..XXX&X*X&X;XqXeXeXXXo.G G M m m M y     ",
"    Z.0XOXoXqX1XM.b.-X5XC.x.M.S.S.Y.`.`. X`.`.`.`.[.&XL.[ M ] ) p : 1 I Q.=X|././././././.W.I.P.M.P.$X5XqX_.O.M V M s s M y     ",
"    Z.0XOXoXqX1Xm.k.-X6X`.v.:.@.q.b.F.E.E.E.Q.`.`.|.>X^.! M { } x < < D S.%X`.E.E.E.E.E.E.P.b.i.[ @.p.I.{.V.D 6 m b p p M y     ",
"    Z.0XOXoXqX;Xm.k.:X6X|.B.;.+.5.t.s.B.P.P.E.`.~.#X7X#X! M X.$.m 1 * S m.].`.E.Q.Q.Q.Q.D.d.:.X.J ! %.f.Y.i.C 4 b k u u M y     ",
"    Z.eXXXOX0X;Xm.m.-X6X&XF.t.>.6.6.:.:.i.B.~.|.E.|.4X%X[ ! h.i.M * + M B.=X|.~.~.L.N.i.+.! U ! +.:.,.i.!.z.M 4 k V m m M y     ",
"    Z.eX<X*XqX;XM.m.1X8X&XY.b.u.>.>.,.6.q.t.p.B.T.#X8X].X.! d.q.M * @ M |.8X}.K.j.q.%.X.T C C R +.>.,.p.E.j.M 4 k m m p M y     ",
"    Z.eX0X2XeX<Xm.b.-X5X|.`.U.b.%.%.u.m.t.>.%.;.i.E.7X#X%.[ i.>.M * @ M |.4XK.q.{ _ Y Y P C D ! $.q.q.j.R.f.m 1 b m p t m 6     ",
"    Z.eXeXqXeX1Xm.b.-X5X'.`.~.U.>.&.u.K.j.t.%. .;.j.].T.>.[ u.%.M * @ M m. Xq.[ J J J J P G J ) &.q.t.V.T.i.k < b m t 4 m 6     ",
"    Z.eXeXqXeX1XB.s.-XwX|.`.T.K.h.:.q.N.U.N.i.>.q.q.>.>.I  .s.i.S * > 7 ! [ I ! P [ *.| m M ! *.0.q.9.f.R.j.M w b m a t M 7     ",
"    Z.eXqX5XeX<Xb.t.|.1X{.`.E.U.S.e.>.u.K.R.K.b.q.>.%.X.W X.b.h.S = > 7 A I A I $.:.*.! i M } r.0.q.9.f.R.h.V w b m t 0 M 7     ",
"    Z.eX1X<XqX;Xi.:.Y.'.`.`.E.E.~.V.%.%.s.U. X~.j.t.;.X.~ %.B.N.G > > 6 M I F _ i.q.! M i P &.r.0.q.9.f.R.h.M w b b a 0 M 7     ",
"    Z.eXXXXX5X&Xt.o.B.I././.~.~.}.L.>.X.>.V. X=XT.N.q.%.[ ;.K.B.G = = 6 ! X...>.u.*.k t m ] *.:.0.q.9.f.R.h.M w d m t 0 M q     ",
"    A.5X{.|.8X1Xb.,.P.Y.{.!.~.].~.N.t.>.t.q.j.E.-X Xb.:.^ ,.&X~.I > : j G %.j.j.] k 3 4 | q.>.8.>.q.0.h.R.f.M 4 p Z u t j 7     ",
"    A.5X;X-XwX-Xs.,.Q.+X}.`.`.].|. XR.V.t.,.,.p.].#XU.t.X.t.=X XW 1 1 k ! %.r.>.M 4 t D =.h.r.e.e.i.i.N.}.N.M 1 f Z p i c 7     ",
"    H.wX5X8XwX+X_ [ `.4X|. X X|.>X7X7X X,.o.%.9.M.Y.E.b.,.v.>X XI 1 < k [ $.| M 6 1 p T g.L.z.g.K.T.T.[.9XE.G , C R m c A z     ",
"    3.I.W.`.].t.D S s.R.D.j.j.B.R.+X%XL.:.[ %.,.t.p.N.B.t.V.4X XI : : j ! ] x # 6 4 y I 8.g.>.$.e.p.i.G.E.f.l 1 m H p i 7 ;     ",
"            F F 6 j B I B J ! [ [ [ %.%.[ [ [ [ X.%.t.p.j.B.&X].G * * q i t 4 1 3 4 t p n k y y V M n n D k 3 @ 3 4 1 &         ",
"            o 5 y y t 0 t i x M I ! X.%.%.%.%.%.o.>.j.G.K.E.=X%X..M M D p k C D M M C C V n k y t w 4 3 * , 1 3 < 1 * X         ",
"            - 6 i x B J Y T T ! %.>.m.K.m.m.b.b.q.b. X&X=X>XwX7XK.u.u.e.} &.q.h.l.l.h.h.&.#.} | R R P E u u p p p p 6 =         ",
"            . 6 p x H U Y R U U [ X.s.B.p.p.p.p.o.t.T.|.&X&X7X%XL.k.k.i.>.q.i.h.G.l.h.i.=.$.X.{ T T R P m m N m m k 7 -         ",
"            - 5 4 0 0 i s x s x x x x M M A G G F F I I [ ;.K.D.X.m G C m M C P C D D J m m m m i p p p t 0 0 0 t y 5 -         ",
"            & - 1 : : : : : : : < < 1 1 1 1 1 1 = = = = 5 G u.h.C , 6 6 1 1 < < * < < 1 1 1 1 < * * * * 2 1 < * * 1 * .         ",
"            o 1 : : 1 2 2 2 1 1 1 2 2 2 5 1 1 1 = = = = = M u.k.U t M M w 4 # $ O O # # @ @ @ @ O # # # $ $ + * # * & X         ",
"            A S 6 j D Q I K K F D D D D j j j h h h h h y I h.V.P t M D M p 1 # * < < 1 y y y y p p j k M i 1 + < 1 1 O         ",
"    3.(.(.).`.p.v c v.].+X~.B.s.j.N. XU.! L D ^ I [ .._ y I j.N.M 1 6 M | ! t < * 1 j I q.h.h.0.$.&.q.N.~.j.k : m J x k q 1     ",
"    H.eXeXeXeX@X~ ~ ].wX8X4X%X X[.].=X~.! L I [ @.%.X.! 6 D e.i.M 1 6 p [ [ D p 6 1 j I l.R.R.N.i.d.N.R.7X~.D 1 B U B m k q     ",
"    Z.qXeXeXeX@X-.o.XXeX-X&X|. X XE.Q.p.! I ! %.i.q.[ x 6 M &.*.m 1 4 4 k D { { k 3 6 M :.h.l.i.r.e.i.N.^.N.B 6 p C p t j 6     ",
"    (.eXwXwXeXXXp.1.@XwX'.`.E.T.U.b.p.[ ^ I [ >.h.>.D : 5 k X.{ k 4 1 * 1 t ! ] C t 4 i ! &.0.*.q.5.q.i.U.h.x 2 i N u t x y     ",
"    Z.qXeXwXeX1Xn.M.&XwX|.Y.U.~.].B.#.M D =.l.N...L y 1 6 l X.[ k 3 < # < 6 i m p p t 6 M } >.q.q.q.q.i.R.h.S 6 x m u 9 m 6     ",
"    Z.qX0X5XwX-Xb.b.|.4X}.~.R.E.R.p.[ M } 0.i.&.j 1 > 5 q A :.:.l 1 * * 1 4 1 4 a i i t p T &.q.q.q.q.i.R.h.S 6 x m u 9 m 6     ",
"    Z.qX*X;X8X;Xx.a.W.|.`.`.~.T.B.>.! P =.*.{ V 1 3 y k y K u.i.M , @ 1 y p t 4 t t i p 4 V X.0.q.q.q.i.R.h.S 6 x m u 9 m 6     ",
"    H.qX'.XX5X*Xp.y.P.`.~.[. XK.i.X.T [ } R a t y D ! D 6 G i.j.M * O 1 P P M p 6 t p p 6 k ! *.q.q.q.i.R.h.A 6 k x u 9 m 6     ",
"    I.qX.XXX5X*X1.;.Y.`.`.`.Q.K.X.! U ! p p m C ' >.S.u.M M @.%.M * $ k *.j.>.[ D x w t M M L [ &.q.,.j.R.j.A 6 x m t 9 m 6     ",
"    I.qX.XoX5X;X1.<./.|.`.E.K.p.I M C U m C R ' %.i.R.h.M M @.%.M * $ k g.R.h.>.} T V p M k M P %.q.,.m. XV.S 1 k m u u m 6     ",
"    I.qX.XoX5X;X1.<.}.-X}.P.j.;.M k M Y ] { $.=.>.j.R.p.M M @.%.M * $ k i.R.h.:.*.&.X.! P M l M X.q.q.B.=XL.D > k m s s m q     ",
"    I.qX.XoX5X;X<.<.|.9X|.K.q.[ V m J [ =.*.0.q.0.h.R.u.M M %.%.m * O k j.~.l.0.r.r.q.0.] P M M } 5.q.K.7XE.G * k m N N m 6     ",
"    I.eXeXeXeX@X6.&.S.+X XN.{ T | { $.*.0.0.0.q.e.j.L.h.m t P R m * @ l i.R.l.q.e.q.q.0.>.=.$.X.T R %.B.4X].! 4 p m u 9 m q     ",
"    I.eXeXeXeX@X>.@.m.`.|.U.X.Y &.0.r.r.8.8.8.8.q.g.N.q.m r P R x * @ l e.K.h.>.q.0.8.>.q.q.>.>.T [ p.'.8X[.T 4 p m p u m 0     ",
"    I.eXeXeXeX@X:.@.M.{.3X&Xi.%.>.q.q.q.q.q.q.9.,.t.p.%.M 6 P U l * @ l i.R.l.q.e.q.q.>.:.>.>.q.&.u._.5XeX'.I 1 k m m s N q     ",
"    H.eXeXeXeXXX-.-.I.1XwXwX`.N.j.b.j.f.f.f.f.f.B.J.P.a.M w I U k * - l N.[.L.h.l.j.j.i.i.h.l.N.s.P.;XeXeX'.F 1 k m N N N q     ",
"    Z.wXeXeXeX.X<.,.'.eXeXwX8X4X4X=X XT.R.T.T.T.&XrX>XK.I t P T j * * D ~.7X7X>X,X&X~.G.R.^.%X=X~.Y.{.3XeX`.F * p p r u m q     ",
"    Z.wXqXeXeX*X,.;.P.*X&X&X%X%X X~.L.V.G.G.G.G.`.|.|.N.V t C P i * * l f.~.~.!.|.~.K.h.V.K.R. XK.b.b.B.E.V.M 1 p p r u m 6     ",
"    Z.eX&X1XqXXX6._ ..o.o.o.X.+.T ! T R ] ] ' ' I ^ ! C a t s B t * @ 6 i D D Y [ ! I G M D ! [ ..! D G I M , 3 p p r u m 6     ",
"    Z.eXOX<XwX;X6.Y I I W I D B i x m m P P P P n l C p 4 t u x q : O * 6 p j D D G M k 6 y M D I D l y i w 6 t p k t t M q     ",
"    H.eXqXqXeX2Xj.>.%.@.%.@.X...J I ! ) +.+.%.%.{ %.e.*.M t 6 6 y , * y +.w.&.| *.%.X.[ ! I I [ #.} ! I U U D V y t i m M 7     ",
"    H.eXeXqX;XW.u.>.&.%.%.%.@.@.! ) ] [ &.&.$.$.*.w.N.i.y & = X - = % y q.l.w.&.&.&.$.X.[ ! ` } $.X.[ ! ` ] T Y x k s m M 7     ",
"    H.wXwX-XS.%.{ _ ) Q R Y T ! ( T R R } | ( U R | *.X.                X.q.%.] U T ( T P C C R R R P C C P J C C H H N N q     ",
"    I.wX4XU.%.J ! Y Y S m B C J T U J C ) R H N B U ..^                 _ :.{ R C P U T P V C U P P P C C P P P P T U Z m 6     ",
"    (.rXM.%.) ) ! Q ! ! ! T ! ! ) ) ! ) ) ) ( T R ! [ A                 F ~ ! ! ) ] [ ] R Y T ! ! ! T R T ) ! T ) ) ( T C 6     ",
"    4.a.~ c l l l l l l M M M M M l k l l l k k x l A g                 g A l c k l c l l M M M M M M k c M c c l M x k y &     ",
"                                                                                                                                ",
"                                                                                                                                "
};
