/* XPM */
static char *_36626b755214c0ef1857dfdc28df9caC1s2z9ClmFt6PbBB[] = {
/* columns rows colors chars-per-pixel */
"32 32 239 2 ",
"   c #020201",
".  c #0A0302",
"X  c #0A0A03",
"o  c #040A0B",
"O  c #0A0C0C",
"+  c #070607",
"@  c #120A04",
"#  c #130A0C",
"$  c #180807",
"%  c #0D1103",
"&  c #0B140C",
"*  c #041109",
"=  c #1E1401",
"-  c #1C150D",
";  c #161609",
":  c #040C12",
">  c #140B12",
",  c #190F15",
"<  c #051613",
"1  c #1B1512",
"2  c #171716",
"3  c #380F0D",
"4  c #22130D",
"5  c #221C0B",
"6  c #2A1A08",
"7  c #341C07",
"8  c #261313",
"9  c #211812",
"0  c #281D13",
"q  c #371813",
"w  c #3D0715",
"e  c #1D210C",
"r  c #1A2415",
"t  c #152B0B",
"y  c #2C280C",
"u  c #372909",
"i  c #23231C",
"p  c #29251A",
"a  c #2B2C1D",
"s  c #262816",
"d  c #342415",
"f  c #36221B",
"g  c #392C19",
"h  c #293116",
"j  c #393313",
"k  c #3A351C",
"l  c #3C3A06",
"z  c #151E2D",
"x  c #211627",
"c  c #1B2723",
"v  c #1E3D37",
"b  c #2C2C24",
"n  c #272828",
"m  c #342B25",
"M  c #392E24",
"N  c #362628",
"B  c #2B3229",
"V  c #2A3427",
"C  c #3D3325",
"Z  c #3D3C24",
"A  c #3B3229",
"S  c #3C3A2C",
"D  c #33332A",
"F  c #322C39",
"G  c #293934",
"H  c #373738",
"J  c #4B0202",
"K  c #580707",
"L  c #490817",
"P  c #4D0D19",
"I  c #640204",
"U  c #6A0102",
"Y  c #6A0506",
"T  c #740103",
"R  c #7B0103",
"E  c #760908",
"W  c #7A110E",
"Q  c #670D19",
"!  c #781417",
"~  c #69160F",
"^  c #462719",
"/  c #473817",
"(  c #553B17",
")  c #4B330D",
"_  c #623E1C",
"`  c #6C1D20",
"'  c #432B29",
"]  c #433424",
"[  c #4E3B25",
"{  c #473A2C",
"}  c #553A28",
"|  c #443836",
" . c #513430",
".. c #68342B",
"X. c #3A413C",
"o. c #4A411B",
"O. c #5E471D",
"+. c #5B5415",
"@. c #564801",
"#. c #644D0F",
"$. c #484228",
"%. c #5B4B24",
"&. c #524425",
"*. c #575724",
"=. c #4B4239",
"-. c #454637",
";. c #594538",
":. c #57533C",
">. c #42502F",
",. c #64432B",
"<. c #6A443B",
"1. c #676F08",
"2. c #2F3142",
"3. c #473A47",
"4. c #3D464E",
"5. c #4B4C4C",
"6. c #464647",
"7. c #544C4A",
"8. c #56534B",
"9. c #544B53",
"0. c #475455",
"q. c #555D5C",
"w. c #4D4E52",
"e. c #654A47",
"r. c #65574B",
"t. c #665A58",
"y. c #775451",
"u. c #5B615D",
"i. c #476559",
"p. c #6F6559",
"a. c #5C5B63",
"s. c #4E5760",
"d. c #675A64",
"f. c #5A6668",
"g. c #696866",
"h. c #756C71",
"j. c #6A7476",
"k. c #737174",
"l. c #787B73",
"z. c #736E6D",
"x. c #830302",
"c. c #8B0102",
"v. c #89070C",
"b. c #9D0201",
"n. c #960503",
"m. c #8C1205",
"M. c #8F1414",
"N. c #A40202",
"B. c #AC0303",
"V. c #AB0901",
"C. c #A3010A",
"Z. c #AC0109",
"A. c #A20A05",
"S. c #B40102",
"D. c #BB0201",
"F. c #B7070A",
"G. c #AB0910",
"H. c #BB0413",
"J. c #B71717",
"K. c #97281F",
"L. c #A8291A",
"P. c #96322D",
"I. c #8E3133",
"U. c #AC2F30",
"Y. c #C30202",
"T. c #CB0102",
"R. c #C4010A",
"E. c #C90708",
"W. c #D30102",
"Q. c #DC0302",
"!. c #D9000C",
"~. c #D60609",
"^. c #CB1116",
"/. c #E40203",
"(. c #EB0101",
"). c #E10705",
"_. c #F30202",
"`. c #FD0203",
"'. c #F2020A",
"]. c #F80605",
"[. c #E20411",
"{. c #FA0B17",
"}. c #F11713",
"|. c #C20F24",
" X c #F21825",
".X c #FF2834",
"XX c #915B2D",
"oX c #C57F06",
"OX c #853746",
"+X c #C53D51",
"@X c #9A4142",
"#X c #8D554C",
"$X c #AB5855",
"%X c #BB5951",
"&X c #AF494E",
"*X c #A2614F",
"=X c #887877",
"-X c #8A6E6E",
";X c #A46D66",
":X c #C45B57",
">X c #CB5355",
",X c #FF4452",
"<X c #C6625F",
"1X c #D96F70",
"2X c #EA7277",
"3X c #6D8378",
"4X c #A7970B",
"5X c #B89607",
"6X c #B5910E",
"7X c #E6B346",
"8X c #CDB052",
"9X c #F9C848",
"0X c #787D88",
"qX c #788987",
"wX c #7A9592",
"eX c #798C8E",
"rX c #888888",
"tX c #85928A",
"yX c #888C95",
"uX c #929796",
"iX c #AC9E9D",
"pX c #9BA099",
"aX c #8B98A1",
"sX c #A59FAD",
"dX c #9CABA5",
"fX c #AAA7A9",
"gX c #B7ACB3",
"hX c #B9B8B7",
"jX c #CE8C8E",
"kX c #BAC2BD",
"lX c #BCBAC7",
"zX c #C5BBC3",
"xX c #C4C8CB",
"cX c #D1D2D3",
"vX c #E1DCD8",
"bX c #ECE5DF",
"nX c #D7EBE0",
"mX c #FDFDFD",
"MX c #F0EAE9",
/* pixels */
"* d f d 2 u 1   y M ] a ^ H D 4 n :.=.{ N ] -.| :.A 1 q &.H [ y ",
"N $.} >.$.F 0 X j =.=.S ,.{ p - , { -.$.M / Z Z { S 2 . b H ] d ",
"( oX$.;.( m u + y A C ] } k s = + - - 5 - = 4 - 2 ; + . # : O % ",
"3X9X_ 3.=.b s : i S g ] g B a = O - 8 6 n r >   O 5 c e 2 < + . ",
"6.y.( A V p f X 4 $.k Z S a i ; 2 | 8.} M h i & 4 / ] u ' M 8 1 ",
"j l I I Y I I T I E Y R v.c.OXq.O B =.E c.n.n.c.R x.x.x.E U J p ",
"y 5XL K  .3. .n.T.S.G.B.F.Y.&Xj., X.p.J.D.Y.Y.D.R.D.S.N.c.c.E e ",
"u 4XQ y.;.b e.P.(.(.Q.Q.~.(.>XqX. 6.=X XW.Q.[.Q.Q.Q./.!.E.W.N.4 ",
"} 4XY r.w.$ i.M.`._.`.(.].`.2XaX-XeXfX.X_./.`._.`._.].`._.`.Q.7 ",
"*.6X` I.y.8.OXU._.{.'.Q. X1X=Xq.B 6.l.;X,X{._.'.'._.].'./._.E.0 ",
"*.5XK v.I.~ I.N.W.D.R.U.r.G H t.z.g.7.v 6.*X~.W.~.W.T.W.E.Y.b.0 ",
"#.5X3 n.S.F.C.V.B.S.K.b , 7.3XfXrXfXyXd.H < #XF.S.D.S.B.A.n.T ; ",
"O.6XL x.n.N.B.S.b.H.e.c H f.zXtX. 6.xXpXG 3.D P.x.R T T T U J i ",
"+.5XP J.J.^.^.J.~.+XG 9.0XxXrXX   qXz.hXfXa.G <.L.v.W W M.W ~ 7 ",
"&.6X3.l.=Xl.=X=X=XtX=.l.vXbXN   rXk.  t.MXgX9.u.=Xg.h.g.h.-Xg.2 ",
"l 5Xn -.9.0.5.4.f.a.9.dXhXg.kXn & o H   g.cXk.H j.6.w.5.5.6.X.  ",
"t 6Xx @ # # * . H q.3.dXrX. l.g.  o cXg.9 lXj.S h.. 2 > > 2 @ @ ",
"o.6Xw.tXwXeXyX0XqXj.t.uXmXk.    h.n > hXMXcXk.w.wXqXeXwXeXeXrX2 ",
"*.5X..<X:X>X%X$X&XjXG j.cXmXq.g.xX, + hXmXuX6.k.1X:X:X:X:X<X#X6 ",
"%.5XL B.R.Y.S.S.b.|.e.6.0.kXcXfX    fXnXqXs.G $XR.T.T.W.W.D.x.6 ",
"%.5X3 c.Z.S.B.S.V.Z.&Xr N 5.uXfX8.rXgXz.F z 7.J.b.F.B.B.V.b.Y ; ",
"*.5X3 T n.N.N.C.C.Z.G.;.n 2.4.u.3X-X8.H n N P.V.B.N.N.N.b.N.R 4 ",
"%.5Xw R c.b.N.N.B.S.B.H.@XX.c N n | b s } P.F.S.S.B.N.B.B.N.Y   ",
"%.5XL C.N.D.T.Y.Y.E.D.D.D.J.;Xq.8.9.rX@XB.S.R.D.Y.Y.R.T.Y.B.R 4 ",
"+.6XK Q.!.W./.~.Q.Q.Q.[.~.W.%XyXa h.rX).T.W.Q.!.!./.W.T.Q.Q.b.7 ",
"#.4XR '.Q.Q.(./.W.Q.Q.Q.)._.>XeX. 0.yX{.(./././.Q./.(./.T.T.n.1 ",
"&.1./._.`.]._.`.`.`.(.W.Q.'.2XaX# u.iX X_.`.`.`.`.`.`.'.Y.S.v.% ",
"j = m.L.M.m.M.T R v.! Q ! E ..-.O m 5.W T R R T T T T U J J J   ",
"p.8X@.B 2.h i <   & < o & %     & q i y s p s s r < * * s a i # ",
"*.7X..{ j h p O = g k s g b 1 > e ,.} o.] Z $.[ ;.A X @ { -.V 8 ",
"N XX8.r.o.' m   g <.&.j ) k d 5 i ;.{ / | S &.[ ;.| 8 9 =.| H b ",
"% 2 4 c 5 - % . y ;.] C ^ G D 9 f 8.;./ | -.O.[ $.B , e >.[ C h "
};
