/* XPM */
static char *f80f220f2743475fabab0e027bb72c10LEOTRKj1IbGZlmaQ[] = {
/* columns rows colors chars-per-pixel */
"30 30 232 2 ",
"   c #020203",
".  c #0B0302",
"X  c #020B03",
"o  c #0D0C05",
"O  c #0C0D0A",
"+  c #05050C",
"@  c #1C0C02",
"#  c #150A07",
"$  c #0A1607",
"%  c #141302",
"&  c #1B1402",
"*  c #1C130D",
"=  c #1B1A0C",
"-  c #13170F",
";  c #080916",
":  c #140914",
">  c #0A1417",
",  c #1C1C13",
"<  c #14111C",
"1  c #1B151A",
"2  c #1B1A1C",
"3  c #161816",
"4  c #370808",
"5  c #281809",
"6  c #36180E",
"7  c #271A17",
"8  c #2F1511",
"9  c #0D201E",
"0  c #1A2517",
"q  c #2B2208",
"w  c #2A2214",
"e  c #272718",
"r  c #342C1C",
"t  c #362819",
"y  c #3D3413",
"u  c #33331D",
"i  c #3A3714",
"p  c #2E340D",
"a  c #1A1821",
"s  c #291C25",
"d  c #361D20",
"f  c #1C2429",
"g  c #182826",
"h  c #1D3130",
"j  c #2D2B23",
"k  c #292927",
"l  c #342C23",
"z  c #362827",
"x  c #29352B",
"c  c #3C3D26",
"v  c #3D3B2A",
"b  c #373429",
"n  c #2C2C38",
"m  c #352932",
"M  c #2A3B32",
"N  c #363A36",
"B  c #45050B",
"V  c #540409",
"C  c #471A05",
"Z  c #5E0A13",
"A  c #48181A",
"S  c #511916",
"D  c #430514",
"F  c #6C0200",
"G  c #660207",
"H  c #760304",
"J  c #7E0102",
"K  c #78070B",
"L  c #63041A",
"P  c #740A14",
"I  c #4A2717",
"U  c #562A18",
"Y  c #453C1B",
"T  c #493418",
"R  c #543914",
"E  c #671A2E",
"W  c #472929",
"Q  c #443324",
"!  c #4B3C26",
"~  c #43362D",
"^  c #433D2C",
"/  c #493D2B",
"(  c #473825",
")  c #533B28",
"_  c #433432",
"`  c #483A39",
"'  c #573C35",
"]  c #402E3A",
"[  c #7D3838",
"{  c #6E3431",
"}  c #4B4119",
"|  c #544A14",
" . c #5D5C1E",
".. c #474806",
"X. c #655B1A",
"o. c #665715",
"O. c #6E5600",
"+. c #46442B",
"@. c #584727",
"#. c #484536",
"$. c #544435",
"%. c #564D38",
"&. c #69552B",
"*. c #6B6020",
"=. c #3D3845",
"-. c #483845",
";. c #3C4643",
":. c #3A4A4A",
">. c #3F564E",
",. c #464445",
"<. c #474B49",
"1. c #564848",
"2. c #445446",
"3. c #494954",
"4. c #4B5557",
"5. c #575958",
"6. c #504357",
"7. c #624A40",
"8. c #655757",
"9. c #755A59",
"0. c #735848",
"q. c #5B635A",
"w. c #6D6254",
"e. c #5A5462",
"r. c #675F65",
"t. c #7E5D64",
"y. c #5B6B6B",
"u. c #676766",
"i. c #64766E",
"p. c #74716E",
"a. c #6D7776",
"s. c #767978",
"d. c #796D71",
"f. c #850302",
"g. c #8E0102",
"h. c #840608",
"j. c #940101",
"k. c #9C0203",
"l. c #9B0608",
"z. c #8F1518",
"x. c #A40102",
"c. c #AB0202",
"v. c #AD030B",
"b. c #A9060A",
"n. c #B40201",
"m. c #BC0101",
"M. c #BD060A",
"N. c #B20A07",
"B. c #B41418",
"V. c #B01209",
"C. c #BF1B26",
"Z. c #8A2F2F",
"A. c #A92F32",
"S. c #C30402",
"D. c #CC0201",
"F. c #C30901",
"G. c #C70409",
"H. c #D40203",
"J. c #DC0102",
"K. c #D20309",
"L. c #D80709",
"P. c #D30F12",
"I. c #E40202",
"U. c #EB0203",
"Y. c #EB010A",
"T. c #E70608",
"R. c #F40203",
"E. c #FD0201",
"W. c #F40309",
"Q. c #FF0309",
"!. c #F40808",
"~. c #F71F22",
"^. c #D2272A",
"/. c #837D05",
"(. c #A67E08",
"). c #B1413D",
"_. c #836525",
"`. c #A5732C",
"'. c #C8443F",
"]. c #D1463F",
"[. c #A13141",
"{. c #D13B42",
"}. c #8C5B5B",
"|. c #814640",
" X c #AF4C51",
".X c #967777",
"XX c #8C6F70",
"oX c #A8757B",
"OX c #CB4544",
"+X c #DC474B",
"@X c #F14D52",
"#X c #D35865",
"$X c #798179",
"%X c #6F827C",
"&X c #9F8806",
"*X c #AA8609",
"=X c #B4870A",
"-X c #A98A13",
";X c #AE8F14",
":X c #C68A0E",
">X c #888579",
",X c #88886E",
"<X c #F0B955",
"1X c #C68373",
"2X c #6D7383",
"3X c #897F80",
"4X c #7C8A88",
"5X c #7C9490",
"6X c #748B8B",
"7X c #898988",
"8X c #868E97",
"9X c #889698",
"0X c #989695",
"qX c #928D88",
"wX c #B78986",
"eX c #A69291",
"rX c #A7A694",
"tX c #9099A2",
"yX c #A99EA4",
"uX c #A5A7A4",
"iX c #B6ADAC",
"pX c #AAB3AD",
"aX c #BBB6B8",
"sX c #ACAFB5",
"dX c #E98E93",
"fX c #B7C6BF",
"gX c #C0C7BF",
"hX c #CCD5D3",
"jX c #D3CECC",
"kX c #DFE3E4",
"lX c #FDFAFB",
"zX c #F1EEEE",
/* pixels */
"# q l t q t + # r ~ j y / x = s 1.#.` l ^ ` %.$.7 3 ! N ( p ",
"l 1.+.#.Q z 3 - @.) / @./ j % * ' ( ^ p i v c b 7 . w m ~ w ",
"| :X^ $.c m = @ u r Q ( Q t % X o $ % @ @ O O 3 o   X + X o ",
",X<XY +.N e g + b c v x j t % : d j j z s >   3 r e 0 1 O O ",
"m ~ U I A C 4 @ W I I t A I x < #.#.I S A 5 4 C U I t A 6 1 ",
"Y O.B G S Z K f.f.g.j.l.b.A.u.: x %.j.c.c.x.x.k.x.l.g.f.F 7 ",
"p =XA [ ,.' { K.D.D.D.m.D.OX%X. 4.XXG.D.D.D.K.D.F.N.n.c.g., ",
"..=XL q.r f 4.H.U.W.U.T.E.+X9X` i.wXY.U.I.U.Y.U.R.I.U.T.G.w ",
"o.-XE }.1.` 0.!.E.W.!.E.~.dXs.e.r.rX@XR.E.W.!.E.E.E.E.E.H.C ",
"o.;XZ z.%.' z.H.H.H.D. Xq.M 5.,.5.;.2. X^.I.J.Y.J.H.J.H.c.8 ",
"*.*XV n.n.v.v.n.l.c.{ g =.u.7XtX0Xd.6.h #.^.n.S.m.n.n.c.J 7 ",
"&.-X4 g.k.x.c.k.n.A.z g 1.uXyXm i.fXa.n k |.k.f.f.f.J H V 5 ",
"o.=XV b.V.M.G.M.P.7.n u.pXiX0   p.qXgX.X1.h [.j.K H K P Z 5 ",
"| (.3..X.XoX>XXXeX4.5.jXzX=.  3Xq.  0XkX$X;.s.9.p.w.XXt.9.w ",
"| *Xn <.3.3.>.3.2X,.$XaXa.sXm a 2 k + yXpX1.5.u.:.<.<.3.,.o ",
"p ;X< = 3 < = # u.N qXaX  5.p.  2 jXN r.aX<.8.N : 7 # 2 2 . ",
"| (.e.9X5X8X5X4X4X5.a.lXsX  . 6Xs 0 hXlXuXe.%X9X8X5X5X9X7Xf ",
"X.=X{ OXOX{.).A.#X8.<.uXlX7Xs.yX  N kXjXp.M 1X{.OXOX'.'.).6 ",
" .&XV n.m.S.n.c.c. XN ,.7XhXiX  x jXaX4.N 1.P.N.m.m.S.n.h.5 ",
"&.;XB j.k.v.b.x.c.B.#.9 -.p.0Xs.0XqX3.s 0  Xx.c.x.c.c.x.H 0 ",
"X.*X4 J j.c.c.c.k.x.B.` x k ,.5.5.N s k [ x.b.v.c.c.c.k.F o ",
" .-XD h.j.c.n.m.n.n.N.C.Z.;.N l z 3.' Z.x.S.c.n.c.n.c.c.J . ",
"&.*XL M.m.G.D.H.K.D.L.S.m.#X%Xq.a.qXP.n.D.D.D.F.D.D.F.D.k.5 ",
"X.*Xh.R.I.J.J.J.K.I.U.L.U.].>X+ 5.oXU.H.T.J.L.U.Y.I.L.J.x.q ",
"o./.D.Q.E.Q.E.E.R.R.I.L.W.@X9X1 y.wXQ.E.E.E.U.E.E.U.D.m.l.& ",
"b C N.L.G.D.F.n.S.B.z.f.N. Xu.o 2.}.G.m.m.n.n.m.n.x.j.J G . ",
"0.`.R c x 0 3 ; + > a * % X X # 7 s 5 2 0 = , - X   - e , X ",
"0.<XT ] u z 5 o w t s 7 e >   a @.) } _ ^ Y ) ^ 3 O z #.b 7 ",
"y _.%.%.i _ % o } @.c y T z 8 j +.^ T _ ! ) $.,.8 * ~ / b z ",
"- < k l & * o O $.' j u b x 5 w 7.%.Y N +.R ! _ 7 3 ` +.b j "
};
