/* XPM */
static char *_8f45dc1d54542008639617051fa5b048M69MM5wyyEkPklq[] = {
/* columns rows colors chars-per-pixel */
"10 10 99 2 ",
"   c #000501",
".  c #00000B",
"X  c #00000C",
"o  c #000213",
"O  c #000019",
"+  c #00001C",
"@  c #00001D",
"#  c #01031C",
"$  c #00001F",
"%  c #01001F",
"&  c #01021E",
"*  c #02031F",
"=  c #01051E",
"-  c #000022",
";  c #000023",
":  c #060322",
">  c #040523",
",  c #000024",
"<  c #000025",
"1  c #000225",
"2  c #000026",
"3  c #020526",
"4  c #060525",
"5  c #000824",
"6  c #080A21",
"7  c #010028",
"8  c #000029",
"9  c #010029",
"0  c #010329",
"q  c #030329",
"w  c #000429",
"e  c #00002C",
"r  c #00002D",
"t  c #06062C",
"y  c #05042E",
"u  c #06102B",
"i  c #08122B",
"p  c #0F132C",
"a  c #020234",
"s  c #070534",
"d  c #0D0B30",
"f  c #030339",
"g  c #0E1831",
"h  c #111133",
"j  c #121633",
"k  c #191E31",
"l  c #1B1E31",
"z  c #1C1E33",
"x  c #181C35",
"c  c #131838",
"v  c #181F39",
"b  c #1C2134",
"n  c #1C203B",
"m  c #212437",
"M  c #272936",
"N  c #272B36",
"B  c #23253A",
"V  c #26243C",
"C  c #2D313C",
"Z  c #252443",
"A  c #282842",
"S  c #263343",
"D  c #333645",
"F  c #323449",
"G  c #383749",
"H  c #3D3A4D",
"J  c #3C3F52",
"K  c #494F4D",
"L  c #444655",
"P  c #414852",
"I  c #474D59",
"U  c #43485C",
"Y  c #4A4C59",
"T  c #4B4E5D",
"R  c #4D5351",
"E  c #52525C",
"W  c #53535F",
"Q  c #494B60",
"!  c #4E4F61",
"~  c #535763",
"^  c #535166",
"/  c #555766",
"(  c #565864",
")  c #54556A",
"_  c #5B5F6A",
"`  c #515C72",
"'  c #5D6265",
"]  c #5C6466",
"[  c #5C606C",
"{  c #5F616D",
"}  c #61656E",
"|  c #6D726C",
" . c #6A6D76",
".. c #6C6E7A",
"X. c #6C6E7B",
"o. c #6D7077",
"O. c #6D7278",
"+. c #6E727B",
"@. c #747883",
/* pixels */
"f $ t 7 7 s O $ = e ",
"k ] ' } m k { X.( 7 ",
"n U D Q J C ! ) W Z ",
"1 $ X $ 1 $ 1 d . - ",
"a j K M 6 { X.| R p ",
"3 x ~ F B _ / L I c ",
"e 7 t - $ o M A   $ ",
"1 P @.T > h  .o.G 7 ",
"v H Y ^ S W O.O.` i ",
"w : O 4 5 V b z g u "
};
