/* XPM */
static char *_dd7fa3084e949daf0341f620b332614B9R8tTh8u9OkA9cI[] = {
/* columns rows colors chars-per-pixel */
"32 32 13 1 ",
"  c #1E0808",
". c #3D0F0F",
"X c #5A1616",
"o c #781E1E",
"O c #872929",
"+ c #982C2C",
"@ c #AC2C2C",
"# c #BA2E2E",
"$ c #C63232",
"% c #C97D7D",
"& c #CD3B3B",
"* c #D45454",
"= c white",
/* pixels */
"oO++OOo**oOOO+O**O+O+oo**oO++OoX",
"OXXoXoX&&.XoXXo&&.XooXX&$.oooX..",
"+ooOXOX&*XXOXoX**XXoX.X*&XoXX.X ",
"+oOOoXo&$XoXXXX*$XXXX.X$*.XX.X. ",
"OoOXXo.*$.OXOXo$&.o..X.##XXoX.X.",
"+XoX.XX$&.oOoXo$$X..X..*$.oXX.. ",
"OXX.X..@@.oXXoX@@.X....$@.XX.X..",
"*&*$&$@%O@&#*#@%O@*$$$@%O@*$$*#O",
"*$&*&&@OX@*$#$@OX@#$*$@OX@#*###O",
"oX..X..@@$#X..X...X.X##@@.X..X..",
"OoXoXoX$#$&#.oXoXoXX#*##$.XXoXX.",
"+ooOXoX#*X*$#.XooXX#$#.##.ooXX. ",
"+XXXoXX$#.o*#*.XXX*$$.X##XXoXX. ",
"OXoXoXX$*.XX$$#.X*$#.X.#$.XoX.X.",
"OXXXXoX@@.oXX#&@@##.X.X@@.oXXX. ",
"*$&*&$@%OXXooX@%O@.X...%O@@$*@$O",
"*&$&*$@OX.XoXo@OX@.oXX.OX@$*@$@O",
"O......@@XoXX*#@@##.X..@@.X..X..",
"+XoOooX&&XoO*&$..#$#..X$#.XXoXX.",
"OoXoXXX*&.o#$&.XXX*&#..#$XoXXX. ",
"oXoOXX.*$.$&$.XooX.*$#.#$.X...X ",
"OXoX.X.$$#$$.ooXX.X.#&$#$.oX.XX.",
"ooX.X..@@*#X.XX....X.$#@@.X.X.. ",
"*$*$&&@%O@#**$@%O@**$#@*O@#$#*#O",
"*&$*&$@OX@$##$@OX@$#*#@OX@#*$$#O",
"oX..X..@@..X...@@..X...@@.X.X.. ",
"OXoXXoX$#.XooXX@*.oXo.X$$.XXoX. ",
"+oOXXoX$#XoXoXo$$XXoX.X*$.oXoXX ",
"+XoOoX.#*.XXXoO**.oX.X.$*.XoXX..",
"OOoXoo.*#.oXooX$$.X.X.X#$.X.X.X ",
"oooo.X.$$.oooXX$@....X.$#..X.X..",
"X.. . .OO... ..OO .   .OO. . .  "
};
