/* XPM */
static char *_e19ccdc06e94f9adf8657c20c7f0e07fBPCSoOTjVqIMnqM[] = {
/* columns rows colors chars-per-pixel */
"32 32 29 1 ",
"  c black",
". c None",
"X c #2A2B1F",
"o c #313224",
"O c #373927",
"+ c #3A3B28",
"@ c #3D3F2A",
"# c #3F402C",
"$ c #464630",
"% c #4A4C31",
"& c #4C4C36",
"* c #4D4C33",
"= c #4E513B",
"- c #535340",
"; c #595A3B",
": c #5C5D3D",
"> c #656943",
", c #6D6E46",
"< c #6F7048",
"1 c #74754B",
"2 c #7E8058",
"3 c #828455",
"4 c #87885F",
"5 c #8C8E62",
"6 c #8E9064",
"7 c #93966D",
"8 c #97976B",
"9 c #9C9D7A",
"0 c white",
/* pixels */
"  .7=.    .7=.    .7=.    .7=.  ",
"  .9-.    .9-.    .9-.    .9-.  ",
"  .7=.    .7=.    .7=.    .7=.  ",
"  .5&.    .5&.    .5&.    .5&.  ",
"  .3$.    .3$.    .3$.    .3$.  ",
"  .3$.    .3$.    .3$.    .3$.  ",
"...1@......1@......1@......1@...",
"46888642468886424688864246888642",
"<<<>O#*:<<<>O#*:<<<>O#*:<<<>O#*:",
"...%X......%X......%X......%X...",
"  .;o.    .;o.    .;o.    .;o.  ",
"  .,+.    .,+.    .,+.    .,+.  ",
"  .3$.    .3$.    .3$.    .3$.  ",
"  .3$.    .3$.    .3$.    .3$.  ",
"  .5&.    .5&.    .5&.    .5&.  ",
"  .5&.    .5&.    .5&.    .5&.  ",
"  .7=.    .7=.    .7=.    .7=.  ",
"  .9-.    .9-.    .9-.    .9-.  ",
"  .7=.    .7=.    .7=.    .7=.  ",
"  .5&.    .5&.    .5&.    .5&.  ",
"  .3$.    .3$.    .3$.    .3$.  ",
"  .3$.    .3$.    .3$.    .3$.  ",
"...1@......1@......1@......1@...",
"46888642468886424688864246888642",
"<<<>O#*:<<<>O#*:<<<>O#*:<<<>O#*:",
"...%X......%X......%X......%X...",
"  .;o.    .;o.    .;o.    .;o.  ",
"  .,+.    .,+.    .,+.    .,+.  ",
"  .3$.    .3$.    .3$.    .3$.  ",
"  .3$.    .3$.    .3$.    .3$.  ",
"  .5&.    .5&.    .5&.    .5&.  ",
"  .5&.    .5&.    .5&.    .5&.  "
};
