/* XPM */
static char *_7f9a203725f48698dbc0136595e5040z9LJTKko7dxOHqBk[] = {
/* columns rows colors chars-per-pixel */
"32 32 9 1 ",
"  c #240D0B",
". c #2C1510",
"X c #302728",
"o c #501D09",
"O c #554C47",
"+ c #854012",
"@ c #9D9591",
"# c #B15C28",
"$ c #D48E5B",
/* pixels */
"@OO@@@@O@OO@OOOOO@OOXOOOOXXXOXXO",
"@@OO@@O@@@OO@OOOOOOOOXOOXXXOXXO.",
"@@#++##++#+++#+++o+++oooo+ooo+..",
"@@+#$$$#$$$$###$#$#$##++###+#o..",
"@@+$OOXOXXXOXXXXOXOXXXXXXXXXo#..",
"O@##OOOXOXXXOXXXXOXXXXXOXXXXo#..",
"@O+$XO+++++++#++oooo+ooo+oooo+..",
"@@#$OX#$$#$$$#$$#$#$$#$#$###+#..",
"O@#$XO+$OXXXXOXXXXXXXXXXXXXXo+..",
"OO+$OX+$XOXXOXXXXXXXXXXXXXXXo#..",
"O@+#XX+$OX+o+oo+oo+oo+ooo+XXo+..",
"@O##XX+$XOo$$$#$$#$$####+#XXo#..",
"OO+$XO+#XX+#XXXXXXXX.XXXo#XXo+..",
"OO+$OX+$XX+$XXXXXXX.XXXXo#XXo+..",
"O@+$XX+$XXo$XXooooooo+XXo$.Xo+..",
"OO+$XXo$XXo#XXo#####+#XXo#X.o#..",
"OO##XO+#XXo+ooo##$XXo#XXo#XXo+..",
"OO+$XX+$XX+##$##$$XXo#.Xo+XXo+..",
"OX+#XXo#XXXXXXXXXXXXo#X.o#XXo+..",
"XO+$XX+#XXXXXXXX.XXXo+XXo#.Xo+. ",
"OO+#XXo+oooo+ooo+oooo+XXo+X.o+..",
"XO+#OX+##$#$####+##+##XXo+.Xo#..",
"OX+#XXXXXXXXXXXXXXXXX..Xo#XXo+ .",
"XO++XXXXOXXXXXXXXX.XXX..o+X.o#. ",
"XXo+o+o+ooooo+ooooooooooo+..o+  ",
"OX+#$###$##$####+###++##+#X.o+ .",
"XO+#XXX.XXXXXXXXXXX.XXXX.X..o+. ",
"OX++XXXX.XXXXXX.XXXX.XXXX.X.o+  ",
"XXo#ooooooooooooooooooooooooo+  ",
"XX+o##++#+#+#+++++##+#++#+++#o  ",
"XO................ ... .   .    ",
"O....................   .   .   "
};
