/* XPM */
static char *result[] = {
/* columns rows colors chars-per-pixel */
"32 32 9 1 ",
"  c #240D0B",
". c #2C1510",
"X c #302728",
"o c #501D09",
"O c #554C47",
"+ c #854012",
"@ c #9D9591",
"# c #B15C28",
"$ c #D48E5B",
/* pixels */
"@OO@@@@O@OO@OOOOO@OOXOOOOXXXOXXO",
"@@OO@@O@@@OO@OOOOOOOOXOOXXXOXXO.",
"@@XXXXXXXXXXXXXXXXXXXXXXXXXXXX..",
"@@X@@@@@O@@OOXOOOXOXXXXXOXXXXX..",
"@@X@OOXOOOOOXOXXXOXXXXXXXXXXXX..",
"O@XOO$$#OXOXOXXOXXXXXXOXoo+XXX..",
"@OX@OO+$$OXOXXOXXXX.XOXo#+XXXX..",
"@@XOOXO+#$OXXXXOXXXXOX+++.XXXX..",
"O@XOXXXO+#XOXXXXOXXXXXo#XX.X.X..",
"OOXXXXXX+$#XOXXXXXOXX+++XXXXXX..",
"O@XOXOXXX+#$#XX.XXX+o#+XXXXXXX..",
"@OXXXXOXXX++###+++o+#+XXXXXXXX..",
"OOXXXXXXXOX++#$###$##X.XXXXX.X..",
"OOXOXXXXOX+$##XXXX+o+#X.XXX.XX..",
"O@XOXOXXX+##XXXXXXXXo#+XXXXX.X..",
"OOXOOXXXO+$XXOXXXXXXXo#XXXXXXX..",
"OOXOXX.X+##XXXOXXXXX.o##X.XXXX..",
"OOXXX.XX+#XXXXXXXXX.X.o+.X.X.X..",
"OXXXXXXX+$XXXXXXXXXXXXo#XXX..X..",
"XOXOXXXXo#.XXXXOXXXXX.o#X.XX.X. ",
"OOXOXXXX+#XXXXXXXX.X.Xo+XX.XXX..",
"XOXOXXXOo#oXXXXXXXX.Xo++X.X.XX..",
"OXXXOXXXX#oXXX.X.XXX.o#X.....X .",
"XOXOXXXXXo+oXXX.XXX.o++..... X. ",
"XXXXXX.XXX##ooXX.Xoo++.X.X...X  ",
"OXXXXXX.XXX###oooo++#.X.X.X. X .",
"XOXXXXXXXXXXX+#++#+X.....X.. X. ",
"OXXXXXXXXX.XXX.XXXX.X.X..... X  ",
"XXXXX.XXX.XX....X.....  . .  X  ",
"XXXXXXXXXXXXXXXXXXXXXXXXXXXXXX  ",
"XO................ ... .   .    ",
"O....................   .   .   "
};
