/* XPM */
static char *result[] = {
/* columns rows colors chars-per-pixel */
"32 32 118 2 ",
"   c #040303",
".  c #0B0606",
"X  c #0A0608",
"o  c #0E090A",
"O  c #100607",
"+  c #100807",
"@  c #14070A",
"#  c #18070C",
"$  c #120B0B",
"%  c #190B0F",
"&  c #0F0B11",
"*  c #1A0711",
"=  c #140D13",
"-  c #1B0C12",
";  c #1B0F1C",
":  c #141413",
">  c #1D1414",
",  c #161814",
"<  c #181C17",
"1  c #1B141C",
"2  c #1C1B1B",
"3  c #210B17",
"4  c #201316",
"5  c #221917",
"6  c #24121A",
"7  c #29111E",
"8  c #25181A",
"9  c #2A1D1E",
"0  c #1E201D",
"q  c #2D221F",
"w  c #1F1321",
"e  c #2B0F22",
"r  c #221522",
"t  c #2B1120",
"y  c #231C24",
"u  c #2D1C21",
"i  c #241828",
"p  c #281E2A",
"a  c #331B25",
"s  c #361B28",
"d  c #3A1E2C",
"f  c #2F1833",
"g  c #301F35",
"h  c #3F1C30",
"j  c #252523",
"k  c #2F2320",
"l  c #272824",
"z  c #292229",
"x  c #2B2F28",
"c  c #322223",
"v  c #372028",
"b  c #3A232C",
"n  c #302E2B",
"m  c #3F2D2D",
"M  c #2D3227",
"N  c #2E3229",
"B  c #342534",
"V  c #3D2330",
"C  c #342B33",
"Z  c #372438",
"A  c #392C3A",
"S  c #353930",
"D  c #3A3E35",
"F  c #373738",
"G  c #3D353D",
"H  c #3F3F3B",
"J  c #431B34",
"K  c #471938",
"L  c #412D2F",
"P  c #432C31",
"I  c #4E273E",
"U  c #4C293B",
"Y  c #423E3D",
"T  c #4E3B3B",
"R  c #50373D",
"E  c #503A3D",
"W  c #3E4339",
"Q  c #412D47",
"!  c #432748",
"~  c #532644",
"^  c #572348",
"/  c #5C234D",
"(  c #453545",
")  c #5B3648",
"_  c #4F2757",
"`  c #512C55",
"'  c #523055",
"]  c #54315A",
"[  c #6B2C5E",
"{  c #643253",
"}  c #693059",
"|  c #43296F",
" . c #5C2F63",
".. c #603E65",
"X. c #4F4B4C",
"o. c #51534B",
"O. c #524453",
"+. c #544C54",
"@. c #575752",
"#. c #5B5457",
"$. c #575D50",
"%. c #6E5856",
"&. c #60525E",
"*. c #715659",
"=. c #5A6054",
"-. c #614E62",
";. c #664E68",
":. c #6A496E",
">. c #665E63",
",. c #6D4972",
"<. c #864E73",
"1. c #5B2F81",
"2. c #7C4883",
"3. c #914980",
"4. c #855FAE",
"5. c #B480CD",
"6. c #D792D3",
"7. c #E4B7E1",
/* pixels */
"> 2 < > < $ > 2 < $ $ $ $ o $ & $ $ < < < $ $ $ < < < 4 > < > < ",
"%.T T m k k + 4 + > k k k k c c q $ > > + + L L O O + k L T E *.",
"T m m L k k + + > k L L *.E L L c k + + k L %.E L + + + q m T %.",
"m m m q k q > + c c *.E L L L L c k 4 L L c c c k L + + k m L m ",
"m L k k k k c + c P P P P c c c c 4 4 P c c c c c k 4 + > k L m ",
"L L k c k k 4 + P c P c c c d s v 4 6 c c c c c c c > + 4 k k k ",
"q k k k k 4 k + c c P c d d | s v 6 6 6 d 4 c c c c 4 + 5 k k > ",
"k k k k 4 c 4 + v c d d d | | d 1.7 d 6 6 s 6 v 4 c + + > k k > ",
"5 > k 4 c 4 + O v v d d P | J 7 1.7 7 P 6 6 6 6 4 4 + + 4 4 k 4 ",
"> + + + @ O + @ 6 d 6 d e | 1.| 1.~ | ^ @ @ 6 6 4 # # + + 4 + > ",
"+ *.L L O O + + @ 6 6 7 e [ 1.1.5.1.| K J @ @ @ + + # + + + + > ",
"5 L c c > 6 9 # O O # # e | / | 4.1.| J J 7 7 6 <.) P P c + L + ",
"k k c c > 6 6 7 7 7 # * t | 1.| 4.4.| J t 7 3.{ U U c v c + L 5 ",
"c c c c > 6 a a 7 7 e # e  .| 4.4.4.1.J e 7 } ~ U U v v 4 4 c k ",
"k 4 c c % 6 7 a s t t # e / | 4.5.4.K K e K ~ I U d v 4 4 4 c k ",
"c k 4 c 4 % 6 7 s e e * e [ 1.5.5.4.1.K e 7 7 6 J d v 4 + c c c ",
"c 4 c c c - % 7 7 e @ ; e / 1.4.5.4.1.K e J ~ d d d d O 4 c c c ",
"c c c c c 6 - - 7 e * 3 e 4.4.5.6.5.4.4.e e e h d s 6 4 O c c c ",
"k c c c c c 4 - O # @ ^ * 4.5.6.6.4.5.4.J J e d 7 O 6 O c c c k ",
"4 k c 4 4 v - 4 3 @ ^ h h | 4.5.6.5.4.| # # @ X @ 6 o 4 4 c c c ",
"> 4 4 > 4 4 4 v U <.{ ^ ^ | 6.6.7.6.5.1.[ [ ~ ~ U @ 6 O > 4 > 4 ",
"> + + + O O O d V 1 p Z Z ` _  ._ r f ; ; 1 = a v O O O $ O 4 > ",
"k L %.E L m b 8 u z z B :.,...2.] ! r 1 o = o u s b O *.E E L k ",
"k E E L L b 9 8 9 =   y 1 Q r g = =   i &   = u v u k E L L L q ",
"k L q k k q 9 c 9 : o G O.-.-.;.( B A 2 . $ % > 8 9 9 c c L c k ",
"k k q T T q 9 c > % o   +.Y &.n G 1 A 2 . + $ 5 8 9 > 9 k k k k ",
"k k E T m m 9 c > $ o .   >.Y #.j C :   . X $ > 8 > > q k k k k ",
"k k L m q q 9 u , $ o .     o.S X.2     X o $ > 8 : > > k > k k ",
"> k q L q > % q > $ o         @.W         o : , 5 % > > 4 q > k ",
"k > k L q > o < > : o       F < 2 ,     . o : > % > % > k 4 k > ",
"> > > > > % . .   o X X W $.o.$.W x 2 j . . + $ : > + > > > > > ",
"> > > > > > > . . j 0 x D M D S M < l ,   , . $ $ + + > > > > > "
};
