/* XPM */
static char *result[] = {
/* columns rows colors chars-per-pixel */
"32 32 9 1 ",
"  c #240D0B",
". c #2C1510",
"X c #302728",
"o c #501D09",
"O c #554C47",
"+ c #854012",
"@ c #9D9591",
"# c #B15C28",
"$ c #D48E5B",
/* pixels */
"@OO@@@@O@OO@OOOOO@OOXOOOOXXXOXXO",
"@@OO@@O@@@OO@OOOOOOOOXOOXXXOXXO.",
"@@XXXXXXXXXXXXXXXXXXXXXXXXXXXX..",
"@@X@@@@@O@@OOXOOOXOXXXXXOXXXXX..",
"@@X@OOXOOOOOXOXXXOXXXXXXXXXXXX..",
"O@XOOXOXOXOXOXXOXXXXXXOXXXXXXX..",
"@OX@OOXOOOXOXXOXXXX.XOXXXXXXXX..",
"@@XOOXOXOXOXXXXOXXXXOXXXX.XXXX..",
"O@XOXXXO+o++o+++o+oo+oo+XX.X.X..",
"OOXXXXXX+$#$#$$####+##+#XXXXXX..",
"O@XOXOXX+$XOXXX.XXXXXXo#XXXXXX..",
"@OXXXXOX+$XXOX.XXOXXX.o#XXXXXX..",
"OOXXXXXXo#XXXOXXXXOXXXo#XXXX.X..",
"OOXOXXXXo$XXXXXXXXXXXXo+XXX.XX..",
"O@XOXOXX+$XXXXXXXXXXXXo#XXXX.X..",
"OOXOOXXX+#XXXOXXXXXXXXo+XXXXXX..",
"OOXOXX.Xo#XXXXOXXXXX.Xo+X.XXXX..",
"OOXXX.XXo$XXXXXXXXX.X.o#.X.X.X..",
"OXXXXXXXo#XXXXXXXXXXXXo+XXX..X..",
"XOXOXXXX+#.XXXXOXXXXX.o#X.XX.X. ",
"OOXOXXXXo#XXXXXXXX.X.Xo+XX.XXX..",
"XOXOXXXOo#XXXXXXXXX.XXo+X.X.XX..",
"OXXXOXXXo+o+ooo+ooooooo#.....X .",
"XOXOXXXX+####+##++###++#.... X. ",
"XXXXXX.XXXX.XXXX.XXXXX.X.X...X  ",
"OXXXXXX.XXXXXXX.XXX.X.X.X.X. X .",
"XOXXXXXXXXXXXXXXXX.X.....X.. X. ",
"OXXXXXXXXX.XXX.XXXX.X.X..... X  ",
"XXXXX.XXX.XX....X.....  . .  X  ",
"XXXXXXXXXXXXXXXXXXXXXXXXXXXXXX  ",
"XO................ ... .   .    ",
"O....................   .   .   "
};
