/* XPM */
static char *result[] = {
/* columns rows colors chars-per-pixel */
"32 32 9 1 ",
"  c #240D0B",
". c #2C1510",
"X c #302728",
"o c #501D09",
"O c #554C47",
"+ c #854012",
"@ c #9D9591",
"# c #B15C28",
"$ c #D48E5B",
/* pixels */
"@OO@@@@O@OO@OOOOO@OOXOOOOXXXOXXO",
"@@OO@@O@@@OO@OOOOOOOOXOOXXXOXXO.",
"@@XXXXXXXXXXXXXXXXXXXXXXXXXXXX..",
"@@X@@@@@O@@OOXOOOXOXXXXXOXXXXX..",
"@@X@OOXOOOOOXOXXXOXXXXXXXXXXXX..",
"O@XOOXO+OXOXOXX+$XXXXXOX+XXXXX..",
"@OX@OO+$+++OXXOo$XX.Xooo++XXXX..",
"@@XOOX+$$$o++o++#o+oo+#+o#XXXX..",
"O@XOX++$XX#$$#$#$##+#+XXo++X.X..",
"OOXXX+$XX.X+$XXo#XOo+XXXXo+XXX..",
"O@XOXo$XXXX+$XX+#XXo#XXXXo+XXX..",
"@OXXX+$XXXX+#+oo++oo#.XXXo#XXX..",
"OOXXX+#XXOX+#$#o#+#++X.XXo+X.X..",
"OOXOX+$XOo+$#XX+#XX+#+o.Xo+.XX..",
"O@XOXo$Xo+#XXXXo+XXXX++oXo+X.X..",
"OOXOOX##+$XXXOX++XXXXX#+ooXXXX..",
"OOXOXX+$#XXXXXOo#XXX.XX+o+XXXX..",
"OOXXX.+#XXXXXXXo+XX.X.XX++.X.X..",
"OXXXXXX+X.XXXooo#ooXXX.X+XX..X..",
"XOXOXXXXXX.XX+#++++XX.XXX.XX.X. ",
"OOXOXXXXXXXXXXXo+X.X.X.XXX.XXX..",
"XOXOXXXOXXXXXXXo+XX.XXX.X.X.XX..",
"OXXXOXXXXXXXXX.o+XXX.X.X.....X .",
"XOXOXXXXXXXXXXXo#XX.X.X..... X. ",
"XXXXXX.XXXX.XXXo+XXXXX.X.X...X  ",
"OXXXXXX.XXXXXXXo+XX.X.X.X.X. X .",
"XOXXXXXXXXXXXXXo+X.X.....X.. X. ",
"OXXXXXXXXX.XXX.XXXX.X.X..... X  ",
"XXXXX.XXX.XX....X.....  . .  X  ",
"XXXXXXXXXXXXXXXXXXXXXXXXXXXXXX  ",
"XO................ ... .   .    ",
"O....................   .   .   "
};
