/* XPM */
static char *result[] = {
/* columns rows colors chars-per-pixel */
"32 32 155 2 ",
"   c black",
".  c #010000",
"X  c #010101",
"o  c #020101",
"O  c #020201",
"+  c #020202",
"@  c #030201",
"#  c #030202",
"$  c #030302",
"%  c #040302",
"&  c #040402",
"*  c #040403",
"=  c #040404",
"-  c #060604",
";  c #070604",
":  c #080604",
">  c #080706",
",  c #080806",
"<  c #090604",
"1  c #090807",
"2  c #0A0907",
"3  c #0B0806",
"4  c #0B0A07",
"5  c #0D0B08",
"6  c #0E0B07",
"7  c #0E0C0A",
"8  c #0F0D0A",
"9  c #0F0E0A",
"0  c #0F0E0B",
"q  c #100C07",
"w  c #100D09",
"e  c #100F0C",
"r  c #110C07",
"t  c #110F0B",
"y  c #110F0C",
"u  c #11100C",
"i  c #12100C",
"p  c #14120D",
"a  c #17130E",
"s  c #17150F",
"d  c #171510",
"f  c #191611",
"g  c #1A1712",
"h  c #1B1812",
"j  c #1B1813",
"k  c #1B1915",
"l  c #1C1A17",
"z  c #1D1913",
"x  c #1D1A17",
"c  c #1D1B17",
"v  c #1E1B14",
"b  c #1E1B16",
"n  c #1E1B17",
"m  c #1F1C14",
"M  c #1F1C16",
"N  c #201C14",
"B  c #201D16",
"V  c #221E19",
"C  c #241F16",
"Z  c #242018",
"A  c #26221A",
"S  c #26231B",
"D  c #29251C",
"F  c #2B261D",
"G  c #2B271F",
"H  c #2B2722",
"J  c #2B2822",
"K  c #2C281E",
"L  c #2F2A1F",
"P  c #2F2A20",
"I  c #302A20",
"U  c #302B20",
"Y  c #302B23",
"T  c #302C23",
"R  c #312B1F",
"E  c #312B20",
"W  c #312C21",
"Q  c #332C20",
"!  c #332F25",
"~  c #342D20",
"^  c #363028",
"/  c #393124",
"(  c #393429",
")  c #3B3326",
"_  c #3D3526",
"`  c #3D3628",
"'  c #3F392D",
"]  c #443C2C",
"[  c #443D2D",
"{  c #453D2D",
"}  c #463E2E",
"|  c #473A25",
" . c #494130",
".. c #4A4231",
"X. c #4E463A",
"o. c #534A37",
"O. c #544B38",
"+. c #554B38",
"@. c #564C39",
"#. c #564D3A",
"$. c #574D3A",
"%. c #574E3A",
"&. c #5E533F",
"*. c #5F543F",
"=. c #5F573E",
"-. c #615741",
";. c #61593F",
":. c #625841",
">. c #645D4F",
",. c #655B42",
"<. c #675B44",
"1. c #675E44",
"2. c #6A5F46",
"3. c #6B5F47",
"4. c #6B6046",
"5. c #6C6048",
"6. c #6C6147",
"7. c #6E6657",
"8. c #71644B",
"9. c #71654B",
"0. c #72674B",
"q. c #73674C",
"w. c #73684B",
"e. c #74674D",
"r. c #74684C",
"t. c #765B4E",
"y. c #76694E",
"u. c #786B51",
"i. c #7A6E4F",
"p. c #7D7152",
"a. c #7E6F51",
"s. c #837656",
"d. c #847555",
"f. c #847656",
"g. c #847856",
"h. c #857656",
"j. c #867857",
"k. c #887A59",
"l. c #897B59",
"z. c #8B7D5B",
"x. c #8B7F5B",
"c. c #8C805B",
"v. c #8F805D",
"b. c #91835F",
"n. c #92835F",
"m. c #928460",
"M. c #978863",
"N. c #998A64",
"B. c #9E8E67",
"V. c #9E8F67",
"C. c #9F8F68",
"Z. c #A09068",
"A. c #A09069",
"S. c #A19169",
"D. c white",
/* pixels */
"l e e e l l x x x c c b u u u u u u u u n c J J H l e e e e e e ",
"X.v q q v P I I U U E m m m N R R R R E r r q q v q q P ' 7.7.X.",
"X.P q v P P ' ' ' P P v P P ' ' ' ' P P P P P q q q v P P ' X.X.",
"P P q P P X.X.X.' P P v P ' ' 7.X.' ' ' P P P P P q P P P ' ' X.",
"' ' q P ' X.' P P P P v ' ' 7.X.X.X.X.X.' ' ' P P q q v P P ' P ",
"' ' q P ' ' ' ' P P v v ' 7.X.X.X.' ' ' P P P P P v q q P P P P ",
"P q q P P ' P P P P v P ' X.X.' ' P P P P v v P v v v q P P P P ",
"P q v P P ' ' P P P v P ' ' ' P P P P v v v v v v v v q P P P v ",
"v q v v P P P P P P v P P P P P v v v q q q q q v q q q P P P v ",
"v q q q q v v v v v q v v v v v v v v q v ' P v q v q X.v v q v ",
"q ' ' ' q ' v q q q q q q q q q v q q v 7.' P v q v v ' q q q v ",
"v ' P P P P v q q P P P P F B Y G F P q v P P v q v v P P q ' q ",
"P P P P v v q v q P P 7.;.h.h.$ - j G ( q v P v q v q v P q ' v ",
"P P P v v q v v v v P #.;.h.h.h.h.O 1 G P q v q v 7.' q v v P P ",
"P v P v v P P P P v v ;.    h.h.h.  + z P P q q 7.' P P v v P P ",
"P P v v P P P P P P v #.W W h.W W   $ z P v q v ' P P P q P P P ",
"P v P v v P ' 7.X.' P P #.h.t.h.#.O - B v q q P P P P v v P P P ",
"P P v v v ' 7.X.' ' ' F p ;.h.* = p B F v q ' ' P P P v q P P P ",
"P v v v P ' X.' ' ' ;.;.#.X X ; y f B F v q ' P v q v q P P P P ",
"v v a P P ' ' ' ' P h.#.W #.W ;.;.+ = p p 6 q q q v v v v P P P ",
"v v v a P P P P P S.u.h.W W W h.h.u.y.X * 3 ' ' ' ' ' ' v v v v ",
"v q q q q q q a y.w u.#.#.;.#.#.#.u.y.X o M >.X.X.X.X.' ' q v v ",
"P P a a a a a a y.z > u.h.W h.h.u.    y.y k ^ X.X.X.' ' ' ' ' P ",
"P ' ' ' ' a P P S.S u.#.#.;.#.#.#.u.  S.j 7 Y X.' ' ' ' ' ' ' P ",
"' ' ' 7.' a P 7.A.M 4 u.f.W X f.u.% = A.z 0 V G ( ' P ' ' ' ' P ",
"P ' 7.X.' P 7.C.G 0 M ! G d.8 % : p B F Z.Z.- - d F P ' ' ' P P ",
"' ' X.X.' P P q.d 4 V.M <.=.= $ : s F P e._ B.  * d F P ' ' P P ",
"P ' ' ' ' P N.d - M.N.x.x.a.. c.> ; p P L 9.8.)   * p B ( P P P ",
"v v ' ( T b.n.= o 3.2.&.&.  *.g.# @ p K K K m.n./ 5.+ = d A Z F ",
"P v k.g j.9 -.@ % -.Q Q $.@.$.= % & Q ~ :.D   * l.| z.  v.i 9 t ",
"v i.t +.r.o.. = < 6 0.0.X X 4 1...% w.w.O.  X 5 %.i.% p.; s.2 4 ",
"6.s  .4 } 2 - : h v [ { * * p ` C { ] { { X * p v ,.8 4.5 , i s "
};
