/* XPM */
static char *result[] = {
/* columns rows colors chars-per-pixel */
"32 32 94 2 ",
"   c #060503",
".  c #090604",
"X  c #0D0A06",
"o  c #0E0C09",
"O  c #120C07",
"+  c #190F06",
"@  c #110F0B",
"#  c #15120D",
"$  c #1C150D",
"%  c #1B1610",
"&  c #1E1B14",
"*  c #22160C",
"=  c #25190D",
"-  c #2A1D0D",
";  c #201710",
":  c #221D13",
">  c #241F18",
",  c #31220E",
"<  c #39260F",
"1  c #272117",
"2  c #2C2112",
"3  c #262219",
"4  c #2B251B",
"5  c #2E281E",
"6  c #332312",
"7  c #3E2D17",
"8  c #342618",
"9  c #332C1E",
"0  c #392E1D",
"q  c #3D301D",
"w  c #2A2722",
"e  c #2F2A20",
"r  c #302A20",
"t  c #3A2E22",
"y  c #3D3224",
"u  c #3F392D",
"i  c #4D3617",
"p  c #4F3915",
"a  c #43331C",
"s  c #4A361A",
"d  c #4E3819",
"f  c #503919",
"g  c #433523",
"h  c #483727",
"j  c #443827",
"k  c #4B3A25",
"l  c #453729",
"z  c #423A2C",
"x  c #4A3E2B",
"c  c #513C21",
"v  c #5A401B",
"b  c #4F402A",
"n  c #5C4627",
"m  c #534229",
"M  c #5B432C",
"N  c #4E463A",
"B  c #53483A",
"V  c #584B38",
"C  c #634724",
"Z  c #624925",
"A  c #694A23",
"S  c #63462E",
"D  c #634B2A",
"F  c #634F35",
"G  c #6C5433",
"H  c #7C5A32",
"J  c #7F642F",
"K  c #6E6657",
"L  c #746955",
"P  c #983202",
"I  c #B15805",
"U  c #875C2C",
"Y  c #805A30",
"T  c #8B602D",
"R  c #95732D",
"E  c #896735",
"W  c #8F6F3A",
"Q  c #9B7337",
"!  c #AA7C27",
"~  c #A0772A",
"^  c #A46F37",
"/  c #A77335",
"(  c #DE7D32",
")  c #92774D",
"_  c #836F51",
"`  c #B38228",
"'  c #A98231",
"]  c #B88C30",
"[  c #C4922D",
"{  c #CE982F",
"}  c #D0972E",
"|  c #FCBC55",
" . c #FEFE6E",
".. c #FEFE9F",
/* pixels */
"& & & & & # & & & @ @ @ @ @ @ @ @ @ & & & & 5 w w & @ @ @ @ @ @ ",
"N N N u w w @ & @ & e e e e e e w @ o @ O e e e & o o e u N N N ",
"N u u u r r o o & e e e u u u u e e w e O o & & & o & e e u N N ",
"u u u e r w & o e e u u K N u e e e e & o O O o o & e e u u u u ",
"u u e e e e r O r b u L N N z r r r : O O e o O o & e u u u u u ",
"u u e e e r & o r u N N B N b 9 9 & & O B N u z z & e e u u e e ",
"e e e e e : r O e u z N V b 9 9 0 : O : b z r 9 9 & e u u e e & ",
"e e e r & r & O e b 0 z b b q 0 0 1 O : 9 9 9 9 9 & e e e e e & ",
"& & r & 9 : O O 0 9 q q m m q q P - 2 + 2 : 0 9 9 & & 9 e 9 e & ",
"& O O O O O O O 1 0 = q a P a P $ $ $ $ O O 9 0 9 # & & & & @ & ",
"O L z z 9 9 : 1 O 1 2 a a I P P } P 2 2 : O O O O O O O O O o & ",
"& z r t 9 : O + + + + + s i = * P I P , $ 2 2 : L F b u e e z O ",
"r 9 5 9 : O O ) G n Z + , = = P P ( I P = 2 ) F b b 9 9 9 e z & ",
"9 r t : 1 + m m n n Z d = = < P I | ( P = 2 G b b b 0 9 e 9 9 & ",
"9 : 9 O O q q a n Z s d - < P I | ( I P = a n m b 9 9 9 9 9 e : ",
"r 9 : : 0 q q a s s p d - P I P ( I P < - 2 2 1 q 9 9 9 9 e e : ",
"9 : 9 : q q a a s i i p - I I ( ( I P P - s n q q 0 0 9 9 9 & & ",
"9 9 : : 0 q q a s i i p , P P ( ( P I P = , 2 q = q 9 0 9 & & O ",
"9 & 1 9 0 q a a a s p i * I I ( ( ( I I s a 2 q 1 = 1 : : 1 & O ",
"& O O & 0 q q q a * * = * ( I ( | ( I ( + + O O O 1 & & : & O O ",
"O O O 1 : 1 : - - * * Q v I ( |  .| ( I W k b 7 0 O : : & O X O ",
": O O X O O O * $ $ E p f P I  . .| I P s k a 9 9 O O O O O O O ",
"5 z L V h x k k s a a , , I |  ... .| I 7 0 2 8 8 9 : 9 z z 5 r ",
"9 B V z l l g 0 8 , p R / ! ! } } [ ] ! R J a $ : 1 $ 4 u z u r ",
"5 z 9 z z j y 9 8 8 7 C A U ^ ^ ^ U Y H D n 8 # o X o & e u u e ",
"r e 9 z u y q 5 % ; ; ; = = = = - = = : * % *   . . # & & 5 e e ",
"r r z z z y 3 : % ; a x S S S S S S k k h h y O # : 3 4 & & 9 e ",
"r r u u 5 4 3 & # + # $ ; * * ; ; ; ; ; % % # # : 4 3 4 e X & e ",
"& O u u 5 4 4 1 % @ : t l t l g g l l l 0 & & # % & 3 4 4 O o e ",
"r O 5 5 5 4 3 & % @ % : > t t y g t t t & & O # & : 3 5 e X o O ",
"& O & & & & 4 # & O o % ; > e ; ; ; w # & o # # & > 4 4 o & O & ",
"& & X & & & & % # @ @ o O @ . # # . . .       . . X X o & & & & "
};
