/* XPM */
static char *result[] = {
/* columns rows colors chars-per-pixel */
"32 32 12 1 ",
"  c #07000D",
". c #11080D",
"X c #161222",
"o c #231D25",
"O c #003B3B",
"+ c #302A30",
"@ c #403F3F",
"# c #404741",
"$ c #575D53",
"% c #018284",
"& c #19C3C5",
"* c #3FFBFD",
/* pixels */
"  ...XXXXXXXXXXXX...  ..XXX..   ",
" o#####$###$##$$$$#@X$###$$$##+ ",
" +o@@@@@@@@@@@@@@@@+.#@@@@@@@+@.",
" @+XXXX++XXXXX+XXX+.XXXXX+XX+@+ ",
" +@o   ...     .... .. .    @+o.",
".@#o XXXXXX. .XXXXXX.XX.XX. @o+.",
" +@X.ooo+ooX.Xoo+ooo+oooXoX @+@X",
".+@X.+++++++X+++++++++++++o.@@@.",
".+#X +@###@+.+@$#@+@++o+@XoX#@+X",
".+#X  +++++X X+++++oooooooX @@+X",
" @#X %&*&%%OO ..XOO%%%O.O   @+oX",
".@#X o@&+#$#$$$$##+X.+@$#@+ #o+X",
".@#XX+@%#@@@@@@@@@#+O@@++ooX#+@X",
"X@$X.++O+@@+@@+++@++%+@@@+XX#@@X",
"X@$X o+ X++++++oo++X&X+++oX #@+.",
".@$o X.  X X. .XO%&**&%O%O  #++X",
"X@#o +@$@$$@+ X+#$  *X$##@+ @++X",
"X@#o.@@@@@@@@.+@@o$ &@@@++@ #+o.",
".@#X +@+@@@++X++++o@%+@++++X@++.",
" @#X ++++++oX o++oo+Oo++o+o @+o ",
".@#X  X. .X.   X.XX.  .XX   +o+ ",
"X@@X +$+ X+#$$$##$@+X.@#$#@ ooo ",
"X+#XX+@@O++@@##@@@@@+O+@@@+ .oo ",
"X+@oXo++%++@++++++@++%+++++  .o.",
"X+@o.+oX&X+++++ooo++X&Xo++o @#  ",
"Xo+o O%&*&&%O O . O%&*%OXX .++@ ",
".@+o XoX XooXX..XX..XoX..oX @++.",
".++X .    . ..  .. .  .. .  @++.",
" +@+@@##$##@$$$+$###$$##+@@++@+X",
".@ooo...XXXX..o.o..XX.o.oooooo+.",
" o++ooo....X.XXoXoX..o.X+X++o+o ",
"  .. ...X.X.XXXX.  .X.. ..  ..  "
};
