/* XPM */
static char *_96d83d7ebc147948231b9a2a7102db2f2esWX1F8JgiDmbV[] = {
/* columns rows colors chars-per-pixel */
"64 64 34 1 ",
"  c #37311F",
". c #4B4842",
"X c #2F2C1F",
"o c #454138",
"O c #4A453E",
"+ c #4B473A",
"@ c #534D47",
"# c #4F4A43",
"$ c #4D483E",
"% c #47443B",
"& c #322F17",
"* c #3E3B2F",
"= c #323025",
"- c #2D2919",
"; c #3A382D",
": c #514B3E",
"> c #3C3423",
", c #554E42",
"< c #494536",
"1 c #313309",
"2 c #363415",
"3 c #413E35",
"4 c #59524A",
"5 c #45402F",
"6 c #40412B",
"7 c #363527",
"8 c #454532",
"9 c #282518",
"0 c #363E1D",
"q c #3B4024",
"w c #514837",
"e c #2C2C08",
"r c #363A09",
"t c #645C55",
/* pixels */
"+<o9%@@@%6O#88q6,8$##@..###$87O6<O*O$$o+*3$....%6;7*o33oooo<$$++",
"$+oX%.#@O68%6<q6:O@#...#..+:o7Oq8.3%$$<67=6666*33<*3@%oooo<+$$++",
",+oXO+#@.%686$q*@@OO##@@O$::3=q6.#;O$%;q8668886=,,:3@#$$O%++#44,",
"#:o9O%#%3oOO%$q=%3#@@@#$O#::oX=*33=;;;;,4@,@@4:=%w$7*$::$$O#44@$",
"+OoX3#O3oo#.%.79o#@@#@@##@##o7#OO%OO+#o3o%OOOO<=+w$=$,w:,@@4##$O",
"$$;9O#O%.%%O.#==4@#$#@@#####37#%%3;O#.37<%...$+X$::X$4w:444@##:$",
"##%-o@#.#$+##@=7#@@#@@######3=.O%*6%.#3X$OO%.#6X$:,==,,,#@@@@#@#",
"#Oq&3@@@#$+,:%X=##@@.$$$##@@;X3Oo7>oo.62qoo%%o6Xo,:X9X*77oooO###",
"777=3@@@##55>>==@#,:#@@@@##3-XX21e1112110%%o%$#=0q;68*7*;;;;;=7=",
",,,67@@4@:6>*<=93333o3**;;7--&2eeee&1e1e2q%O.#@=&;4t4tt4444444,:",
"$%<oXO4,4:5www=9$$$,#+<7- -X76* --XX->6&9&=;;;;7Xot##:,,,,::::$$",
"%+$%X;44$oww::=ot+$@@$+<7<-=@.O66&   -< >4:++::;XO4,,@,@,,,:$$+%",
"++O89*w55:,,,,>%,<+$O%%+*4  .O.$;& > -5 ot$$O$@*=#:,,,@,:::+++$+",
"+OO895<w::,,,:;$w<$$.Oo%*4==@#@@;-222&>-<t3+%OO77,::::#:$:$<%%%%",
"%%O895wwww,,,+*,5<$$#OoX34  OO#$=e  2&X9+4o+O$$=;4,:w::$$$$$.%%%",
"++<395ww5w,,:w7::+$#@4#9+4>- 7=X-- >-- 9<4o+OO$;;,wwwwwww$#$$%%o",
"++O@=;w<wwww:w=#++$$O%39*4>>4:+6-X> o<6&54+OO%$;*,wwwwww$$O$$O+8",
".#$#7=5***<<%3-7====XX-954>>o**79 > o.+5<@$OOO$77,:wwwww$+O.$$<8",
"@@%.*0 &&X7===-99---9XX-o@ 111&-X   -X7=<,$OO$.7X;<,ww,,,@@@4@#:",
"%%o3q00&--+#$<X3:+77*- X --&222 && >XX&95@4444@79-X=XX=777===*o%",
"$+<<$<8*9X4@@%X4@$3 +=XX&& 22222r12> *6;=*****;=-;;=XX99=7;;**3o",
"######oX-X@@@39:..@=-   &  22rrrr1e1&21&999999-9*t,4:,3744@@4@@@",
"....o%37-X@@% -3@@O-X  & &&&2r1111e122&&----X-99*,www,5X+5<4@###",
"###O3%#o--;7X-- @.;*;-2e&22 1e111eerrr211112&&&-*4www45X<65:::$#",
".o*;3o.%--99XXXX==-37&6&&&& 221e11eerrr1r1112&2-7<<55<>X<85+$<..",
"*;3ooo.%X9*,4%X--XX-XX--&&  &  &e&21r1e1rr11&>>X--X&----;;7+O%.O",
"o3oooO.OX9>+.OX;*XX= X X& 2& & &&    1111112122&&-&&--X7XX75O%%O",
"333%OO#OX9;%##7*o9    >>>&&e&  &>>&& > 112&1122 2&&&-*@#*08o<%Oo",
"o%%..##*X93O%;= XX > >>>> 2222  >  >>> 22 &1e12 &  &-+3o605<%O%o",
"O.#@@@#7X-&XXX        > >>> 2e222>>>>>> 211eee1&&-&&-o3$$6<$$O.%",
"33*;77 &-&& 2    >  > > >>  2eqq12&&&551r11e11111&&&-oo%%;*3333*",
"0&-=<;9-e&     >>> >> >>>>>>222q1e6: & 1111r001e1&&-9XX===777;;*",
"qqX%4+&9e22&  >>>>>> > >  X 2&e11ettt, 2211rr111e&&-+$-+@@,,+8+6",
"#$7*.o0&2r200 >>>>>>>>>>>>   &e&e6t8:ttqrrrrrr111&&&@.=@t@444::+",
"@#=3.%0121r2>  > > 2>  >> X>>&25 4,<+$# 21rrrr1&&>2 ##=@t444444,",
"4o9*%%61r0r2   >> >>>>>> 7$*>&&&-;++$@;921r2rr1& 62 @@=@ttttttt4",
"<;93,;-e1&212 2 >> >> > *4#o&&e66&+:,%X  22222>,:5e @.X;%3.O.#@:",
"6q-o,o;65*5>&1&&  5@*>>>*@<;--&+<&*w$=  28q12X>86 e&##====&X3555",
"qqX*@O#,:$,o&r11&&<.*5>> **X&ee&21207X> 6@%0&*4<$$> $$3+5*0;,86q",
"<8X;@#$OO%+*-rrr22 ;>>>>> X &00ee121-   >:@6e3@3o$oO.=;8**qqo<68",
"+<X*4##O.O.7-1rr1&>     >>>>&211  2>5>>  +o -*.oO$$;O;3o3607O+8+",
"O%=X@@$%oooX-1r11&  7O<  >>>2&& >>22>>   &X&&7o3$##;@,,,,46;$.8+",
"O%=9X=7=7  X--111-99 ;>-- > & >>>    >>      XXX=7--O$:::,*;$..O",
"O.=;::@@@@@,%Xee&-=+++<55=- 5 -&* >>>>> *ttttt4#=9*@,::w:,*7%#$$",
"+8;6:,#.O..$+=2w,&<@$#$$#*954%>83& w5>* 34..#..O7944$+:+:@603$$$",
"60==6+###..#$X64#*<<o%<oo*9*.%%o;954*<5 34%.$..%=X@$<w++:,60*<++",
";7O.68#$#..$$=*..55$%%%%o*- o*;=-X*558 -*4$#+$$%7*$$+w:$w,60*<<6",
"q6$445#$#..#$=3#@o7.O$.$#3--9-----XXX---=#$#$<$%=%$$$$:+:,60*w55",
"66%#@3#$$#.#$=5@4#=o*;;;7=--*4:<- +<o5>-=#$++%%o=+##...%::60*$<o",
"*6o.@3:+.$O#$=644#==X -=;;X9<:8<=*@#@4,> #+,:..3X$..#...:,q0555;",
"53o68q++++O#%; 3*7XX,,%4@4;X;=;q&*@$.O%;-7=;;;;99*.%%*8oo+q055*5",
"q*q00q<68<<O%o*3o67=.OO%%%o$<08<6*@#$%+*X*o333333X;;=0000qq0**66",
"qq0q03+8<%%+%oO$#3*=;.O%%O$$;7%%o #@$8<3&3+:#$%%+*-70qqq000006qq",
".q0q6$++<%%+%OO%.o;=O.OO$#.$**O%O -077 X-;%$+%%%Oo744,@4,,+3@@@@",
"%5008+++<<<<+$<<Ooq7$#$##.O@*;OO%&28;068&7:,:$%%Oo7@.....o6#...O",
"%<60*O<85<+O$$<<+$qq$@$#$ooO37oo<3q888<<07,,$+OOOo0#OOO8qq5.Oo%%",
"OO%00*5<65<+$++++66q$@##oo.#o73o+.35<o850q,$o<OOO80#O.50q6%..6q<",
"#$%0qw<:<555+++:80%7<@##oO.4+*3o::65<o5<65,$<+OOO%q#.Oq<$<+OO6q8",
"#.+0qww,w5<5O#+#8067+@##%O.@o;+$::*8<88+5*:O$$%O%.6#O66#%O+%O86+",
"$O*07>w:ww::oOo8*q6=+@#.%..@o;++::*8<8<w5;#O$O%O%.88q0<%%O$$.<8<",
"##8=7== X=XXX-X7=7=Xo@+%...433:+::*:wwww5;#.$%OO%%qqq6%%O#$$$88<",
"$#$=7=3%o%%oO3XX7;=9O@,#@@@4=o:o<+7<<555**#$OO..OO*q683%#$O+##$$",
"$:<99o444@@@@@*X7=X97**;*;3;9XXXX=9==XX=93#$$$..%.3*368O###+$@:$",
"$:o93@###O..%<q7$ooo3o*=3ooo3=3%O$7+$++$;3#$$...%+*;o*3O##Oo$#$$"
};
