/* XPM */
static char *ede0bec3e5474cfbd27e3a513a45782cRvXTU40CuV6kU0Lc[] = {
/* columns rows colors chars-per-pixel */
"32 32 19 1 ",
"  c #001800",
". c #002000",
"X c #003018",
"o c #004020",
"O c #006030",
"+ c #008040",
"@ c #00A050",
"# c #00C060",
"$ c #00E070",
"% c #101010",
"& c #202020",
"* c gray25",
"= c #505050",
"- c #606060",
"; c gray44",
": c #808080",
"> c #909090",
", c #A0A0A0",
"< c gray69",
/* pixels */
"%%%&.&&%.&.%&&%%&%&&&..%&&.&%&%&",
"$;,<<<,,#,,,,,;&<<,<<$<,,<#,,O;%",
",$##.@;@;:>;;;+.,$>:>O:;;:.:;@=&",
"<;:###.#;;>@;+O&<>@+.@..O-;@;o@%",
"<:;>;:@#.;;:O@o&<::@..@+;;-@#XO&",
",>;:;;;@.@OO+OO.<:;+$$+;O+-O@oO%",
",;;:+@O++O@oooX&,;:;+--@-OXoOX.&",
";==*=+ooXoX.X..%;===**=XXooo*.X%",
"%&%&..&%&%&&..%&&&&%%&%&%&%%.&.&",
"<,<,#,;%,<<,<;,,,#.,,,;&<<,<,,,,",
">:;#..=&<>:>;=,::;#..+X%,>:>>:;;",
";;;:@-..,:;;-=;;::;##+O%<>:;>;#:",
":@;+O#O&<:;-=--;;:$+@oX&,:;--;:;",
"O++$XOo%,:;=-;;:-;@OOXX.<;::-:;;",
"X@OoXoX%,;;=-::+O+o@oX.&,:;-;##O",
"X*XoXXo%;===XOXX.X.XXoO.;=O*++OX",
"%%&&%&%&%&%&%%&%&&%&. .&&&  &%&&",
"<,<<,<,,<<<,,,.&==,,@.,<>>,,,,o%",
",>:>:;#;;;@-;.o&=<:>#.:;;-;:;o+&",
"<:#>>#@:-;>@:@+%<:>>.@#;:;-#;@o%",
"<>;#@..@>:;#o#+%<;:>;.@;::-+O+o%",
"<:;#.;:+@:oo++o&,:..@++@...@oXX%",
",;@.-+:-ooooXoX&,;+.++@##.X+XXO&",
";@+X*o+.X.X+X.X%;.*OXXOXOOXXXoX.",
"&%&.%%%&%&&%%&.&%+&%&%%&%&%%.&.&",
"<,,<,#.&-:,,@#@.<<,<,,;.<<<<<<,,",
">:;;+#*%::-:;@#@@.;;;;=&<>:@;:;;",
":;-;#.=&:-=;:;;:#@::.+O%<>;#..;;",
";#+-#O*.:=;::;OO+#@;.OO&,>@##@.:",
"O+OO++.&,-;:+O++-.#:X+O%,:;..#o.",
"OoXoO-X%,;;;--O.O.OXXOX%,;@.@o+O",
"OooX..X%;==*OO+OO*XOXOX%;==++Ooo"
};
